<svg width="320" height="568" viewBox="0 0 320 568" fill="none" xmlns="http://www.w3.org/2000/svg">
<g clip-path="url(#clip0_104_195)">
<g style="mix-blend-mode:lighten" filter="url(#filter0_f_104_195)">
<ellipse cx="325.636" cy="535.393" rx="39.0004" ry="34.5101" transform="rotate(-36.5282 325.636 535.393)" fill="#98EA00"/>
</g>
<g filter="url(#filter1_dd_104_195)">
<path d="M331.276 578.947C330.719 578.949 330.183 578.737 329.777 578.356C329.372 577.975 329.127 577.453 329.093 576.898C328.698 571.376 327.818 565.901 326.464 560.534C325.572 557.013 324.535 553.709 323.546 550.887C323.366 553.415 322.999 555.926 322.449 558.399C321.532 562.379 318.373 571.568 308.762 570.989C306.95 570.756 305.203 570.158 303.628 569.232C302.053 568.305 300.682 567.069 299.597 565.598C297.556 562.782 296.612 559.318 296.945 555.855C293.452 556.454 289.86 555.75 286.851 553.877C285.338 552.947 284.028 551.719 283.002 550.268C281.976 548.818 281.255 547.174 280.882 545.436C280.34 541.493 281.099 534.342 292.218 530.737C295.48 529.699 298.836 528.98 302.238 528.59C299.601 526.875 297.127 524.921 294.846 522.754C286.345 514.723 288.733 507.934 290.915 504.666C291.998 503.258 293.354 502.084 294.902 501.214C296.45 500.343 298.158 499.795 299.923 499.601C303.447 499.198 306.996 500.104 309.896 502.145C311.077 498.876 313.415 496.152 316.468 494.488C318.076 493.621 319.844 493.09 321.665 492.928C323.485 492.767 325.319 492.977 327.055 493.548C330.034 494.753 336.702 498.829 334.013 510.78C333.294 513.84 332.293 516.827 331.023 519.703C334.059 518.114 337.241 516.822 340.525 515.844C351.751 512.576 356.394 518.087 358.167 521.644C358.832 523.292 359.157 525.056 359.122 526.833C359.086 528.609 358.692 530.359 357.962 531.979C356.526 535.218 353.952 537.818 350.726 539.286C352.957 541.977 354.12 545.393 353.994 548.885C353.929 550.717 353.492 552.517 352.711 554.175C351.929 555.833 350.82 557.315 349.448 558.532C347.687 559.891 345.578 560.725 343.363 560.938C341.149 561.151 338.92 560.735 336.931 559.738C336.662 559.624 336.418 559.458 336.213 559.249C336.009 559.04 335.848 558.792 335.741 558.519C335.634 558.247 335.582 557.957 335.589 557.664C335.596 557.372 335.661 557.084 335.781 556.817C335.901 556.55 336.073 556.31 336.287 556.11C336.501 555.911 336.752 555.756 337.027 555.655C337.301 555.554 337.593 555.509 337.885 555.523C338.178 555.537 338.464 555.609 338.728 555.734C339.999 556.399 341.436 556.679 342.864 556.542C344.292 556.405 345.649 555.857 346.771 554.963C348.502 553.299 349.521 551.03 349.617 548.632C349.75 545.581 348.411 542.687 345.457 540.022C345.169 539.762 344.955 539.43 344.838 539.06C344.721 538.69 344.704 538.296 344.79 537.917C344.876 537.539 345.062 537.191 345.327 536.908C345.593 536.625 345.929 536.418 346.301 536.308C350.136 535.102 352.716 533.1 353.946 530.278C354.886 528.182 354.994 525.807 354.248 523.634C352.186 519.474 347.989 518.28 341.755 520.089C337.702 521.316 333.818 523.041 330.19 525.226C329.59 525.574 328.893 525.72 328.203 525.643C327.513 525.566 326.866 525.269 326.357 524.797C325.848 524.324 325.504 523.701 325.376 523.018C325.247 522.336 325.342 521.63 325.644 521.005C327.421 517.446 328.773 513.69 329.672 509.815C331.071 503.52 329.575 499.288 325.355 497.587C323.044 496.936 320.571 497.208 318.457 498.347C315.768 499.77 313.984 502.447 313.151 506.294C313.068 506.669 312.887 507.015 312.627 507.298C312.368 507.581 312.038 507.791 311.672 507.907C311.306 508.023 310.916 508.041 310.541 507.959C310.165 507.877 309.818 507.698 309.534 507.439C306.579 504.726 303.505 503.544 300.417 503.93C298.133 504.186 296.031 505.298 294.533 507.041C292 510.924 293.098 515.145 297.813 519.606C300.743 522.308 303.981 524.655 307.46 526.601C308.055 526.951 308.522 527.482 308.795 528.117C309.067 528.751 309.129 529.456 308.973 530.129C308.817 530.801 308.451 531.407 307.927 531.856C307.403 532.306 306.749 532.577 306.061 532.63C301.831 532.86 297.646 533.618 293.604 534.885C287.406 536.826 284.596 540.203 285.199 544.797C285.809 547.014 287.229 548.921 289.179 550.139C291.808 551.815 295.088 552.057 298.922 550.875C299.291 550.757 299.685 550.739 300.063 550.824C300.441 550.909 300.79 551.092 301.073 551.356C301.357 551.62 301.565 551.955 301.677 552.326C301.788 552.697 301.799 553.091 301.708 553.467C300.815 557.302 301.274 560.474 303.095 562.921C304.52 564.848 306.639 566.145 309.003 566.539C313.549 566.804 316.697 563.633 318.144 557.35C319.064 553.212 319.469 548.975 319.35 544.737C319.339 543.982 319.595 543.247 320.071 542.661C320.548 542.075 321.215 541.675 321.956 541.531C322.698 541.388 323.466 541.509 324.127 541.875C324.788 542.24 325.3 542.827 325.572 543.531C327.612 548.734 329.343 554.053 330.757 559.461C332.144 565.092 333.039 570.834 333.434 576.62C333.474 577.201 333.282 577.773 332.9 578.212C332.517 578.65 331.977 578.919 331.396 578.96H331.24" fill="#43C400"/>
<path d="M331.285 578.074C330.978 578.074 330.681 577.957 330.457 577.747C330.233 577.536 330.098 577.247 330.079 576.94C329.678 571.358 328.786 565.822 327.414 560.396C326.118 555.441 324.548 550.562 322.712 545.781C322.8 549.966 322.395 554.147 321.506 558.237C319.094 569.09 312.51 570.296 308.844 570.067C307.174 569.839 305.567 569.279 304.117 568.419C302.667 567.56 301.404 566.418 300.403 565.063C299.345 563.583 298.594 561.906 298.194 560.131C297.794 558.356 297.754 556.519 298.076 554.728C296.277 555.183 294.405 555.275 292.571 554.998C290.736 554.72 288.975 554.079 287.392 553.112C286.005 552.251 284.802 551.124 283.854 549.795C282.906 548.466 282.231 546.962 281.869 545.371C281.374 541.753 282.098 535.121 292.541 531.732C296.673 530.42 300.949 529.611 305.275 529.32C301.742 527.289 298.453 524.862 295.471 522.085C287.488 514.548 289.671 508.266 291.684 505.203C292.696 503.923 293.951 502.856 295.377 502.063C296.803 501.27 298.372 500.768 299.993 500.584C301.839 500.387 303.705 500.562 305.482 501.099C307.259 501.635 308.911 502.522 310.339 503.708C310.818 501.952 311.643 500.309 312.765 498.876C313.887 497.443 315.285 496.248 316.875 495.363C318.362 494.572 319.991 494.085 321.668 493.93C323.345 493.774 325.036 493.954 326.643 494.459C330.043 495.882 335.397 499.777 332.998 510.629C332.082 514.592 330.723 518.439 328.946 522.097C332.684 519.902 336.672 518.161 340.824 516.912C351.363 513.849 355.668 518.914 357.308 522.206C357.902 523.728 358.187 525.353 358.148 526.986C358.109 528.619 357.745 530.228 357.079 531.72C356.304 533.407 355.202 534.923 353.835 536.18C352.469 537.437 350.866 538.409 349.12 539.04C350.393 540.341 351.392 541.885 352.057 543.579C352.721 545.273 353.039 547.084 352.991 548.904C352.924 550.586 352.521 552.237 351.806 553.761C351.092 555.285 350.08 556.651 348.831 557.779C347.221 559.047 345.285 559.833 343.247 560.046C341.209 560.259 339.152 559.892 337.315 558.985C337.17 558.92 337.039 558.827 336.93 558.712C336.821 558.596 336.736 558.461 336.679 558.312C336.623 558.164 336.596 558.006 336.6 557.847C336.605 557.688 336.641 557.532 336.706 557.387C336.771 557.242 336.863 557.112 336.979 557.003C337.094 556.893 337.23 556.808 337.378 556.752C337.527 556.695 337.685 556.668 337.844 556.673C338.002 556.677 338.159 556.713 338.303 556.778C339.741 557.51 341.357 557.815 342.962 557.657C344.567 557.499 346.093 556.884 347.36 555.886C349.325 554.048 350.482 551.508 350.579 548.819C350.736 545.467 349.229 542.32 346.105 539.45C345.947 539.306 345.829 539.122 345.765 538.918C345.701 538.714 345.693 538.496 345.74 538.287C345.788 538.078 345.891 537.886 346.038 537.73C346.185 537.574 346.37 537.46 346.576 537.4C350.7 536.194 353.485 533.915 354.848 530.767C355.9 528.403 355.995 525.724 355.113 523.291C352.846 518.709 348.131 517.262 341.475 519.239C337.338 520.488 333.373 522.246 329.669 524.473C329.247 524.719 328.756 524.821 328.271 524.764C327.785 524.707 327.331 524.494 326.977 524.156C326.623 523.819 326.389 523.376 326.309 522.893C326.229 522.411 326.308 521.916 326.534 521.482C328.35 517.851 329.73 514.018 330.646 510.063C332.551 501.441 329.03 498.004 325.738 496.714C323.158 495.948 320.379 496.234 318.009 497.51C315.042 499.077 313.089 501.983 312.196 506.119C312.152 506.326 312.053 506.517 311.912 506.674C311.77 506.83 311.589 506.947 311.388 507.012C311.183 507.082 310.963 507.095 310.751 507.051C310.538 507.006 310.342 506.905 310.183 506.759C306.999 503.828 303.671 502.562 300.27 502.984C297.687 503.284 295.325 504.583 293.686 506.602C290.876 510.883 292.07 515.658 297.111 520.421C300.091 523.159 303.381 525.539 306.915 527.512C307.33 527.754 307.657 528.123 307.848 528.564C308.039 529.005 308.084 529.496 307.976 529.965C307.869 530.433 307.614 530.855 307.249 531.169C306.885 531.483 306.429 531.672 305.95 531.708C301.638 531.947 297.373 532.721 293.252 534.011C286.656 536.146 283.605 539.956 284.232 545.021C284.875 547.526 286.461 549.686 288.658 551.05C291.552 552.895 295.109 553.173 299.221 551.894C299.428 551.827 299.65 551.818 299.862 551.867C300.075 551.915 300.27 552.021 300.427 552.172C300.593 552.32 300.714 552.511 300.778 552.724C300.842 552.936 300.845 553.163 300.789 553.378C299.812 557.502 300.343 560.963 302.344 563.652C303.131 564.726 304.122 565.635 305.26 566.326C306.398 567.017 307.661 567.477 308.977 567.679C312.594 567.896 317.165 566.341 319.142 557.731C320.069 553.507 320.474 549.186 320.348 544.864C320.332 544.336 320.503 543.82 320.832 543.406C321.161 542.993 321.626 542.71 322.144 542.607C322.662 542.505 323.2 542.589 323.661 542.845C324.123 543.102 324.479 543.514 324.665 544.008C326.689 549.165 328.412 554.436 329.826 559.793C331.226 565.366 332.134 571.052 332.539 576.784C332.551 576.942 332.531 577.101 332.481 577.252C332.431 577.403 332.351 577.542 332.247 577.662C332.143 577.782 332.016 577.88 331.873 577.951C331.731 578.021 331.576 578.063 331.418 578.074H331.334" fill="#98EA00"/>
<path d="M331.566 576.514C331.511 576.516 331.456 576.506 331.404 576.487C331.352 576.467 331.305 576.437 331.264 576.399C331.224 576.361 331.192 576.315 331.169 576.265C331.146 576.214 331.134 576.16 331.132 576.104C330.735 570.457 329.839 564.856 328.455 559.367C327.073 554.046 325.378 548.811 323.378 543.69C323.348 543.53 323.255 543.389 323.121 543.298C322.986 543.206 322.821 543.172 322.661 543.202C322.501 543.232 322.36 543.325 322.268 543.46C322.177 543.594 322.142 543.76 322.173 543.919C322.323 548.374 321.918 552.83 320.967 557.184C318.555 567.434 312.526 568.628 309.101 568.423C307.544 568.199 306.047 567.668 304.698 566.861C303.348 566.053 302.172 564.986 301.239 563.72C300.155 562.156 299.418 560.379 299.075 558.508C298.732 556.637 298.791 554.714 299.249 552.867C293.895 554.326 290.205 553.024 288.022 551.661C286.722 550.86 285.595 549.807 284.707 548.565C283.818 547.323 283.187 545.915 282.849 544.426C281.872 536.552 288.794 533.055 293.051 531.632C297.3 530.292 301.699 529.482 306.147 529.22C306.277 529.214 306.401 529.164 306.5 529.079C306.598 528.994 306.665 528.878 306.689 528.75C306.721 528.624 306.709 528.492 306.657 528.374C306.604 528.256 306.514 528.159 306.4 528.098C302.773 526.06 299.398 523.603 296.343 520.779C293.087 517.716 288.288 511.554 292.725 504.861C293.67 503.67 294.842 502.678 296.173 501.943C297.504 501.208 298.967 500.745 300.479 500.58C303.047 500.267 306.942 500.665 311.151 504.27C311.527 502.398 312.299 500.627 313.416 499.077C314.533 497.528 315.969 496.235 317.626 495.287C319.011 494.539 320.531 494.078 322.097 493.928C323.663 493.779 325.243 493.946 326.743 494.418C329.926 495.697 334.919 499.375 332.64 509.649C331.696 513.728 330.275 517.683 328.407 521.43C328.351 521.546 328.334 521.677 328.358 521.803C328.382 521.93 328.446 522.045 328.54 522.133C328.634 522.221 328.754 522.276 328.882 522.29C329.01 522.305 329.139 522.278 329.251 522.214C333.069 519.926 337.156 518.12 341.418 516.836C345.723 515.63 353.477 514.556 356.998 521.731C357.549 523.15 357.812 524.664 357.773 526.186C357.733 527.707 357.392 529.206 356.769 530.595C355.744 533.006 353.417 536.117 348.171 537.914C349.597 539.188 350.733 540.752 351.505 542.501C352.277 544.25 352.665 546.144 352.645 548.056C352.585 549.627 352.211 551.17 351.547 552.594C350.882 554.019 349.939 555.297 348.774 556.352C347.281 557.545 345.477 558.283 343.576 558.478C341.674 558.672 339.757 558.315 338.054 557.449C338 557.427 337.952 557.394 337.911 557.353C337.87 557.311 337.838 557.262 337.817 557.208C337.796 557.154 337.785 557.097 337.787 557.039C337.788 556.981 337.801 556.923 337.825 556.871C337.848 556.818 337.882 556.771 337.924 556.731C337.966 556.692 338.015 556.661 338.069 556.641C338.123 556.621 338.18 556.611 338.238 556.614C338.295 556.616 338.351 556.629 338.404 556.653C339.964 557.447 341.72 557.776 343.463 557.601C345.205 557.426 346.86 556.754 348.232 555.665C350.375 553.684 351.646 550.935 351.765 548.019C351.921 544.402 350.33 541.074 347.038 538.047C346.984 537.992 346.945 537.925 346.922 537.852C346.899 537.778 346.893 537.701 346.905 537.625C346.924 537.549 346.961 537.48 347.014 537.423C347.066 537.366 347.133 537.324 347.207 537.299C351.56 535.973 354.514 533.597 355.961 530.245C357.108 527.674 357.199 524.755 356.214 522.117C354.502 518.656 350.595 515.075 341.672 517.668C337.478 518.938 333.456 520.72 329.697 522.973C329.423 523.136 329.103 523.205 328.786 523.171C328.468 523.137 328.17 523.002 327.936 522.785C327.702 522.568 327.544 522.282 327.485 521.968C327.427 521.655 327.471 521.331 327.611 521.044C329.454 517.359 330.854 513.469 331.783 509.456C332.7 505.319 333.218 497.976 326.417 495.226C323.624 494.382 320.609 494.681 318.036 496.058C314.865 497.735 312.779 500.81 311.838 505.187C311.822 505.263 311.785 505.334 311.732 505.391C311.679 505.448 311.612 505.49 311.537 505.512C311.464 505.536 311.387 505.539 311.312 505.522C311.238 505.505 311.17 505.469 311.115 505.416C307.762 502.329 304.229 501.002 300.588 501.449C297.791 501.765 295.229 503.163 293.449 505.344C291.338 508.575 290.241 513.785 296.994 520.14C300.017 522.937 303.36 525.365 306.955 527.375C307.226 527.537 307.439 527.781 307.563 528.072C307.687 528.363 307.716 528.686 307.645 528.994C307.574 529.303 307.407 529.58 307.168 529.788C306.929 529.995 306.631 530.121 306.315 530.148C301.905 530.392 297.542 531.186 293.328 532.512C284.489 535.382 283.259 540.543 283.778 544.366C284.457 547.106 286.191 549.468 288.601 550.938C291.688 552.903 295.463 553.217 299.804 551.866C299.879 551.847 299.959 551.847 300.034 551.865C300.11 551.884 300.18 551.922 300.238 551.975C300.297 552.026 300.34 552.092 300.364 552.167C300.387 552.241 300.39 552.321 300.37 552.397C299.345 556.75 299.912 560.416 302.059 563.25C303.8 565.598 306.402 567.159 309.294 567.591C316.614 568.037 319.303 561.163 320.255 557.039C321.194 552.757 321.599 548.374 321.461 543.992C321.442 543.64 321.556 543.295 321.779 543.022C322.002 542.75 322.319 542.571 322.667 542.521C323.007 542.449 323.361 542.5 323.666 542.666C323.971 542.832 324.207 543.101 324.331 543.425C326.334 548.548 328.041 553.782 329.444 559.101C330.836 564.639 331.74 570.288 332.145 575.984C332.152 576.1 332.113 576.214 332.036 576.302C331.959 576.39 331.851 576.445 331.735 576.454" fill="#FEFE00"/>
</g>
<path d="M4.60123 245.876L7.1858 241.568C7.47976 241.077 7.32139 240.442 6.83077 240.148C6.33911 239.853 5.70462 240.011 5.41066 240.503L2.68325 245.049C1.05922 244.471 -0.679695 244.14 -2.49935 244.14C-4.319 244.14 -6.05792 244.471 -7.68194 245.049L-10.4093 240.503C-10.7033 240.011 -11.3388 239.854 -11.8295 240.148C-12.3201 240.442 -12.4785 241.077 -12.1845 241.568L-9.59992 245.876C-14.5962 248.458 -18.0254 253.665 -18.0254 259.667C-18.0254 260.24 -17.5617 260.702 -16.9903 260.702H11.9916C12.563 260.702 13.0267 260.24 13.0267 259.667C13.0257 253.666 9.59751 248.46 4.60123 245.876ZM-15.9159 258.632C-15.386 251.694 -9.57094 246.211 -2.49935 246.211C4.57225 246.211 10.3873 251.694 10.9172 258.632H-15.9159Z" fill="#A6D864"/>
<path d="M4.72309 251.762H3.35887C2.9821 251.762 2.67676 252.068 2.67676 252.445V253.809C2.67676 254.186 2.9821 254.491 3.35887 254.491H4.72413C5.10089 254.491 5.40624 254.186 5.40624 253.809V252.445C5.40624 252.068 5.09986 251.762 4.72309 251.762Z" fill="#A6D864"/>
<path d="M11.9907 261.737H-16.9913C-17.5627 261.737 -18.0264 262.2 -18.0264 262.772V283.651C-18.0264 286.407 -15.7813 288.649 -13.0228 288.649H-11.8159V294.866C-11.8159 297.145 -9.95903 299 -7.67567 299C-5.39231 299 -3.53539 297.145 -3.53539 294.866V288.649H-1.46525V294.866C-1.46525 297.145 0.391661 299 2.67502 299C4.95839 299 6.8153 297.145 6.8153 294.866V288.649H8.02219C10.7817 288.649 13.0257 286.407 13.0257 283.651V262.772C13.0257 262.2 12.563 261.737 11.9907 261.737ZM10.9556 283.651C10.9556 285.265 9.64001 286.579 8.02219 286.579H5.78023C5.20887 286.579 4.74516 287.042 4.74516 287.614V294.866C4.74516 296.004 3.81671 296.93 2.67502 296.93C1.53334 296.93 0.604885 296.003 0.604885 294.866V287.614C0.604885 287.042 0.141174 286.579 -0.430184 286.579H-4.57046C-5.14182 286.579 -5.60553 287.042 -5.60553 287.614V294.866C-5.60553 296.004 -6.53399 296.93 -7.67567 296.93C-8.81735 296.93 -9.74581 296.003 -9.74581 294.866V287.614C-9.74581 287.042 -10.2095 286.579 -10.7809 286.579H-13.0218C-14.6396 286.579 -15.9562 285.264 -15.9562 283.651V263.807H10.9556V283.651Z" fill="#A6D864"/>
<path d="M17.6843 261.737C15.6866 261.737 14.0615 263.364 14.0615 265.364V279.847C14.0615 281.847 15.6866 283.474 17.6843 283.474C19.682 283.474 21.307 281.847 21.307 279.847V265.364C21.307 263.364 19.682 261.737 17.6843 261.737ZM19.2369 279.847C19.2369 280.705 18.5403 281.404 17.6843 281.404C16.8283 281.404 16.1317 280.705 16.1317 279.847V265.364C16.1317 264.506 16.8283 263.807 17.6843 263.807C18.5403 263.807 19.2369 264.506 19.2369 265.364V279.847Z" fill="#A6D864"/>
<g style="mix-blend-mode:lighten" filter="url(#filter2_f_104_195)">
<ellipse cx="-1.91105" cy="269.5" rx="30.6803" ry="27.148" transform="rotate(-36.5282 -1.91105 269.5)" fill="#A6D864"/>
</g>
<g opacity="0.7">
<g style="mix-blend-mode:lighten" opacity="0.4" filter="url(#filter3_f_104_195)">
<ellipse cx="314.787" cy="108.552" rx="33.0849" ry="29.2756" transform="rotate(-10.9633 314.787 108.552)" fill="#FFA800"/>
</g>
<g filter="url(#filter4_dd_104_195)">
<path d="M292.143 124.651C291.672 124.422 291.283 124.055 291.027 123.598C290.799 123.189 290.693 122.722 290.722 122.254C290.751 121.786 290.914 121.336 291.191 120.958L299.25 109.538C299.376 109.357 299.458 109.148 299.488 108.929C299.519 108.71 299.497 108.487 299.425 108.278L294.612 95.2215C294.419 94.774 294.361 94.2801 294.444 93.8001C294.528 93.3201 294.749 92.8748 295.082 92.5185C295.414 92.1623 295.843 91.9107 296.316 91.7943C296.789 91.6779 297.286 91.7019 297.746 91.8633L311.044 95.9947C311.256 96.0714 311.484 96.0915 311.706 96.053C311.928 96.0146 312.136 95.9189 312.31 95.7754L323.219 87.2768C323.579 86.9786 324.019 86.7912 324.484 86.7371C324.949 86.6831 325.419 86.7647 325.839 86.9722C326.245 87.1817 326.586 87.498 326.825 87.887C327.064 88.276 327.193 88.723 327.196 89.1796L327.475 103.03C327.48 103.254 327.539 103.473 327.648 103.669C327.757 103.864 327.911 104.031 328.099 104.153L339.661 111.914C340.053 112.174 340.365 112.538 340.56 112.967C340.755 113.395 340.825 113.869 340.763 114.336C340.707 114.8 340.519 115.239 340.222 115.6C339.925 115.961 339.531 116.23 339.086 116.374L334.406 118.046C334.094 118.15 333.753 118.129 333.456 117.987C333.159 117.845 332.929 117.593 332.815 117.285C332.759 117.13 332.735 116.967 332.743 116.803C332.752 116.639 332.793 116.478 332.863 116.33C332.934 116.182 333.034 116.05 333.156 115.941C333.278 115.831 333.421 115.747 333.576 115.694L338.183 114.109L326.621 106.348C326.092 106.005 325.657 105.534 325.357 104.98C325.057 104.425 324.9 103.804 324.901 103.173L324.757 89.2346L313.875 97.8682C313.378 98.2606 312.791 98.5244 312.167 98.6363C311.544 98.7483 310.902 98.7049 310.299 98.51L297.001 94.3786L301.802 107.46C302.016 108.053 302.084 108.688 302.003 109.314C301.922 109.939 301.693 110.536 301.335 111.055L293.251 122.462L307.996 121.909C308.37 121.893 308.743 121.969 309.081 122.131C309.419 122.293 309.713 122.535 309.935 122.837L318.758 134.664L322.591 121.223C322.76 120.616 323.074 120.059 323.507 119.601C323.939 119.142 324.476 118.796 325.072 118.591L327.658 117.72C327.819 117.64 327.996 117.595 328.176 117.588C328.357 117.581 328.536 117.613 328.703 117.682C328.87 117.75 329.02 117.853 329.144 117.985C329.268 118.116 329.363 118.272 329.421 118.442C329.48 118.613 329.502 118.794 329.485 118.974C329.468 119.153 329.413 119.327 329.323 119.484C329.234 119.64 329.112 119.776 328.966 119.882C328.82 119.988 328.653 120.061 328.476 120.097L325.89 120.968C325.679 121.039 325.487 121.159 325.332 121.318C325.176 121.477 325.06 121.671 324.994 121.884L321.186 135.337C321.059 135.787 320.809 136.192 320.463 136.508C320.118 136.823 319.692 137.035 319.232 137.121C318.751 137.221 318.251 137.175 317.795 136.99C317.34 136.805 316.95 136.488 316.675 136.081L308 124.263L293.317 124.877C292.913 124.898 292.51 124.82 292.143 124.651" fill="#FF7D00"/>
<path d="M315.882 102.873C315.71 102.834 315.549 102.757 315.41 102.647C315.305 102.521 315.226 102.376 315.178 102.22C315.129 102.063 315.112 101.899 315.128 101.736C315.143 101.573 315.191 101.414 315.268 101.27C315.345 101.125 315.45 100.998 315.576 100.894L318.528 98.3646C318.782 98.1542 319.11 98.0535 319.439 98.0848C319.602 98.1003 319.76 98.1477 319.904 98.2243C320.049 98.3009 320.177 98.4052 320.281 98.5312C320.385 98.6573 320.464 98.8026 320.512 98.959C320.56 99.1153 320.576 99.2796 320.561 99.4424C320.545 99.6052 320.498 99.7633 320.421 99.9078C320.345 100.052 320.24 100.18 320.114 100.285L317.223 102.689C317.043 102.85 316.819 102.953 316.58 102.986C316.342 103.018 316.099 102.979 315.882 102.873" fill="#FF7D00"/>
<path d="M305.276 103.254C305.009 103.125 304.796 102.906 304.674 102.635C304.552 102.365 304.529 102.06 304.609 101.775C304.66 101.602 304.749 101.442 304.869 101.307C304.988 101.172 305.136 101.064 305.301 100.992C305.467 100.92 305.646 100.885 305.826 100.889C306.007 100.894 306.184 100.937 306.346 101.017L310.435 102.24C310.712 102.366 310.936 102.586 311.067 102.861C311.198 103.136 311.228 103.449 311.152 103.744C311.106 103.902 311.029 104.051 310.925 104.179C310.821 104.308 310.693 104.415 310.547 104.493C310.401 104.572 310.242 104.62 310.077 104.636C309.912 104.651 309.746 104.634 309.588 104.584L305.499 103.361L305.276 103.254Z" fill="#FF7D00"/>
<path d="M292.445 124.258C292.075 124.09 291.771 123.805 291.58 123.447C291.403 123.129 291.32 122.767 291.342 122.404C291.364 122.041 291.49 121.692 291.705 121.398L299.764 109.979C299.943 109.718 300.059 109.42 300.103 109.107C300.146 108.793 300.117 108.475 300.016 108.175L295.191 95.1436C295.061 94.8053 295.03 94.437 295.103 94.0819C295.175 93.7269 295.348 93.3999 295.6 93.1395C295.851 92.8779 296.169 92.6911 296.52 92.6001C296.871 92.509 297.241 92.5174 297.587 92.6241L310.874 96.7804C311.176 96.8718 311.496 96.8887 311.807 96.8296C312.117 96.7705 312.408 96.6372 312.656 96.4411L323.612 87.8431C323.895 87.6171 324.236 87.4754 324.596 87.4343C324.956 87.3931 325.321 87.4543 325.648 87.6107C325.974 87.7671 326.251 88.0124 326.445 88.3185C326.639 88.6246 326.742 88.9792 326.744 89.3416L326.926 103.267C326.928 103.583 327.007 103.894 327.156 104.172C327.305 104.451 327.519 104.689 327.779 104.867L339.354 112.604C339.648 112.809 339.88 113.09 340.025 113.418C340.17 113.746 340.222 114.108 340.175 114.463C340.138 114.823 339.997 115.164 339.77 115.446C339.543 115.728 339.24 115.938 338.896 116.051L334.289 117.635C334.203 117.664 334.112 117.676 334.021 117.67C333.931 117.664 333.842 117.64 333.761 117.599C333.679 117.559 333.607 117.503 333.547 117.434C333.487 117.366 333.441 117.286 333.412 117.2C333.383 117.114 333.372 117.023 333.378 116.933C333.384 116.842 333.408 116.753 333.448 116.672C333.488 116.591 333.544 116.518 333.613 116.458C333.681 116.398 333.761 116.353 333.847 116.324L338.467 114.776C338.565 114.74 338.652 114.678 338.718 114.597C338.784 114.515 338.826 114.417 338.841 114.314C338.857 114.207 338.841 114.098 338.796 114C338.75 113.902 338.677 113.82 338.585 113.763L327.023 106.002C326.576 105.7 326.209 105.295 325.952 104.821C325.695 104.347 325.555 103.818 325.545 103.279L325.364 89.3534C325.391 89.2315 325.377 89.104 325.322 88.9916C325.268 88.8792 325.177 88.7886 325.064 88.7347C324.951 88.6808 324.824 88.6668 324.702 88.6949C324.58 88.7231 324.472 88.7917 324.394 88.8896L313.513 97.5232C313.094 97.8582 312.599 98.0853 312.072 98.1848C311.546 98.2842 311.002 98.253 310.49 98.0937L297.192 93.9623C297.093 93.9293 296.986 93.9267 296.885 93.9549C296.785 93.983 296.695 94.0405 296.627 94.1201C296.542 94.1875 296.483 94.2823 296.461 94.3884C296.438 94.4944 296.452 94.6051 296.502 94.7016L301.304 107.783C301.487 108.285 301.546 108.824 301.473 109.354C301.401 109.884 301.2 110.388 300.888 110.822L292.829 122.242C292.767 122.322 292.731 122.42 292.726 122.521C292.721 122.623 292.748 122.723 292.802 122.809C292.854 122.904 292.935 122.98 293.033 123.027C293.131 123.074 293.242 123.089 293.349 123.071L308.069 122.506C308.357 122.494 308.644 122.552 308.904 122.677C309.164 122.801 309.389 122.987 309.561 123.219L318.383 135.047C318.445 135.129 318.528 135.192 318.623 135.229C318.719 135.267 318.823 135.277 318.924 135.259C319.024 135.24 319.118 135.194 319.194 135.125C319.27 135.057 319.326 134.968 319.354 134.869L323.187 121.428C323.318 120.926 323.566 120.463 323.911 120.075C324.255 119.688 324.687 119.388 325.17 119.199L327.792 118.315C327.963 118.257 328.15 118.268 328.312 118.346C328.475 118.424 328.601 118.562 328.663 118.732C328.695 118.816 328.71 118.906 328.707 118.996C328.704 119.087 328.682 119.175 328.643 119.257C328.604 119.338 328.548 119.411 328.48 119.47C328.412 119.53 328.332 119.574 328.246 119.602L325.661 120.473C325.364 120.583 325.097 120.76 324.881 120.99C324.664 121.221 324.505 121.498 324.414 121.801L320.606 135.254C320.5 135.6 320.304 135.91 320.037 136.154C319.77 136.397 319.443 136.564 319.089 136.637C318.729 136.705 318.356 136.669 318.015 136.533C317.675 136.397 317.38 136.167 317.165 135.869L308.429 124.053C308.39 124.004 308.341 123.965 308.285 123.938C308.229 123.912 308.168 123.898 308.106 123.898L293.36 124.451C293.044 124.466 292.728 124.4 292.445 124.258Z" fill="#FFA800"/>
<path d="M316.3 102.456C316.208 102.439 316.122 102.398 316.051 102.337C315.991 102.269 315.946 102.189 315.917 102.103C315.888 102.017 315.876 101.926 315.883 101.835C315.889 101.745 315.913 101.656 315.954 101.575C315.995 101.494 316.051 101.421 316.12 101.362L319 98.9821C319.069 98.9226 319.148 98.8773 319.234 98.8485C319.32 98.8198 319.411 98.8084 319.502 98.8148C319.592 98.8212 319.681 98.8454 319.762 98.886C319.843 98.9266 319.916 98.9828 319.975 99.0514C320.035 99.1199 320.08 99.1996 320.109 99.2857C320.137 99.3718 320.149 99.4627 320.142 99.5532C320.136 99.6438 320.112 99.7321 320.071 99.8133C320.031 99.8945 319.974 99.9669 319.906 100.026L317.05 102.357C316.948 102.445 316.823 102.501 316.689 102.519C316.556 102.536 316.421 102.514 316.3 102.456" fill="#FFA800"/>
<path d="M305.626 102.954C305.461 102.875 305.334 102.734 305.273 102.562C305.212 102.389 305.223 102.2 305.301 102.035C305.38 101.87 305.521 101.743 305.694 101.683C305.866 101.622 306.055 101.632 306.22 101.711L310.298 102.959C310.403 102.966 310.505 102.997 310.596 103.049C310.687 103.102 310.765 103.174 310.824 103.262C310.883 103.349 310.921 103.449 310.935 103.553C310.949 103.658 310.939 103.764 310.906 103.864C310.872 103.964 310.817 104.055 310.743 104.13C310.669 104.205 310.578 104.262 310.479 104.297C310.38 104.331 310.273 104.343 310.169 104.33C310.064 104.317 309.964 104.281 309.876 104.223L305.787 103L305.638 102.929" fill="#FFA800"/>
<path d="M292.418 123.283C292.133 123.149 291.896 122.929 291.742 122.654C291.612 122.403 291.552 122.121 291.569 121.839C291.585 121.557 291.678 121.284 291.837 121.05L299.921 109.643C300.144 109.324 300.287 108.957 300.338 108.573C300.389 108.188 300.347 107.796 300.216 107.431L295.378 94.4245C295.285 94.1603 295.265 93.8757 295.321 93.6011C295.377 93.3265 295.507 93.0723 295.696 92.8658C295.889 92.662 296.135 92.5166 296.406 92.4465C296.677 92.3763 296.963 92.3842 297.23 92.4693L310.529 96.6007C310.897 96.7118 311.286 96.734 311.664 96.6652C312.042 96.5964 312.398 96.4388 312.704 96.2053L323.672 87.5824C323.892 87.4097 324.157 87.3029 324.436 87.274C324.714 87.2452 324.995 87.2955 325.247 87.4193C325.503 87.5345 325.72 87.7211 325.873 87.9567C326.026 88.1924 326.107 88.467 326.108 88.7479L326.278 102.699C326.283 103.084 326.382 103.462 326.566 103.8C326.75 104.138 327.014 104.427 327.335 104.64L338.897 112.401C339.133 112.553 339.32 112.77 339.436 113.026C339.552 113.282 339.592 113.566 339.551 113.844C339.518 114.125 339.405 114.39 339.225 114.607C339.045 114.825 338.806 114.986 338.537 115.07L333.941 116.629C333.878 116.652 333.808 116.648 333.748 116.619C333.687 116.59 333.641 116.538 333.618 116.475C333.596 116.411 333.6 116.342 333.629 116.281C333.658 116.221 333.709 116.174 333.773 116.152L338.393 114.604C338.571 114.539 338.728 114.426 338.847 114.279C338.966 114.131 339.042 113.954 339.069 113.766C339.093 113.584 339.065 113.399 338.988 113.232C338.911 113.065 338.788 112.924 338.633 112.825L327.071 105.064C326.684 104.802 326.365 104.452 326.141 104.042C325.917 103.632 325.795 103.174 325.785 102.707L325.615 88.7565C325.606 88.5697 325.548 88.3886 325.445 88.2322C325.343 88.0757 325.2 87.9496 325.033 87.8668C324.866 87.7887 324.682 87.7583 324.499 87.7789C324.317 87.7995 324.144 87.8703 323.999 87.9835L313.031 96.6063C312.668 96.9045 312.235 97.105 311.772 97.1886C311.31 97.2721 310.834 97.2361 310.389 97.0839L297.091 92.9524C296.913 92.8942 296.723 92.8857 296.541 92.928C296.36 92.9703 296.193 93.0618 296.059 93.1923C295.926 93.3308 295.836 93.5051 295.8 93.6939C295.764 93.8828 295.783 94.078 295.856 94.256L300.67 107.312C300.826 107.754 300.875 108.226 300.812 108.69C300.749 109.154 300.577 109.597 300.309 109.981L292.225 121.389C292.114 121.543 292.049 121.727 292.039 121.917C292.03 122.107 292.075 122.297 292.17 122.462C292.272 122.616 292.413 122.739 292.58 122.818C292.746 122.898 292.931 122.931 293.114 122.914L307.885 122.372C308.095 122.368 308.304 122.414 308.494 122.504C308.684 122.595 308.85 122.729 308.979 122.896L317.717 134.836C317.824 134.991 317.969 135.116 318.14 135.197C318.31 135.279 318.498 135.314 318.687 135.299C318.87 135.261 319.04 135.173 319.177 135.044C319.314 134.916 319.413 134.752 319.463 134.571L323.296 121.13C323.411 120.673 323.642 120.253 323.967 119.91C324.291 119.568 324.698 119.315 325.148 119.174L327.733 118.303C327.764 118.282 327.8 118.268 327.837 118.263C327.874 118.257 327.912 118.26 327.948 118.271C327.983 118.283 328.016 118.302 328.044 118.328C328.071 118.353 328.092 118.385 328.105 118.42C328.117 118.451 328.122 118.485 328.121 118.518C328.12 118.552 328.111 118.584 328.097 118.615C328.082 118.645 328.062 118.672 328.037 118.694C328.012 118.716 327.982 118.733 327.951 118.743L325.365 119.614C325.001 119.747 324.673 119.962 324.407 120.242C324.14 120.523 323.942 120.861 323.828 121.231L320.019 134.684C319.937 134.955 319.783 135.198 319.574 135.388C319.364 135.579 319.107 135.709 318.83 135.765C318.555 135.79 318.278 135.739 318.029 135.62C317.78 135.501 317.567 135.317 317.413 135.087L308.553 123.211C308.476 123.1 308.371 123.01 308.249 122.952C308.127 122.893 307.992 122.868 307.856 122.878L293.111 123.432C292.872 123.439 292.634 123.388 292.418 123.283" fill="#FFFF3A"/>
<path d="M316.066 101.488C316.049 101.429 316.054 101.366 316.08 101.311C316.107 101.256 316.152 101.213 316.209 101.189L318.913 98.6645C318.95 98.6279 318.996 98.6035 319.047 98.5947C319.098 98.5859 319.15 98.5932 319.196 98.6154C319.243 98.6376 319.281 98.6737 319.306 98.7188C319.331 98.7638 319.342 98.8155 319.336 98.8667C319.348 98.9251 319.34 98.9858 319.314 99.0396C319.289 99.0934 319.246 99.1374 319.193 99.165L316.324 101.459C316.286 101.462 316.247 101.454 316.212 101.438C316.177 101.421 316.147 101.395 316.125 101.363" fill="#FFFF3A"/>
<path d="M305.584 101.91C305.549 101.882 305.522 101.847 305.504 101.806C305.486 101.766 305.478 101.722 305.481 101.677C305.496 101.608 305.537 101.546 305.596 101.506C305.655 101.466 305.728 101.45 305.798 101.462L309.85 102.698C309.883 102.705 309.914 102.718 309.942 102.738C309.97 102.757 309.993 102.781 310.011 102.81C310.029 102.838 310.04 102.87 310.046 102.903C310.051 102.937 310.049 102.971 310.041 103.003C310.018 103.069 309.972 103.124 309.911 103.157C309.85 103.19 309.778 103.199 309.711 103.181L305.584 101.91Z" fill="#FFFF3A"/>
</g>
</g>
<g opacity="0.7">
<g style="mix-blend-mode:lighten" filter="url(#filter5_f_104_195)">
<ellipse cx="7.58246" cy="536.166" rx="13.4897" ry="5.81045" transform="rotate(-36.5282 7.58246 536.166)" fill="url(#paint0_radial_104_195)"/>
</g>
<g style="mix-blend-mode:lighten" filter="url(#filter6_f_104_195)">
<ellipse cx="32.6589" cy="520.92" rx="13.4897" ry="5.81045" transform="rotate(22.6978 32.6589 520.92)" fill="url(#paint1_radial_104_195)"/>
</g>
<g style="mix-blend-mode:lighten" opacity="0.5" filter="url(#filter7_f_104_195)">
<ellipse cx="35.1956" cy="540.443" rx="25.5916" ry="10.7811" transform="rotate(-60.0547 35.1956 540.443)" fill="#FF6376"/>
</g>
<g style="mix-blend-mode:lighten" opacity="0.5" filter="url(#filter8_f_104_195)">
<ellipse cx="4.98269" cy="527.941" rx="25.5916" ry="10.7811" transform="rotate(-60.0547 4.98269 527.941)" fill="#FF6376"/>
</g>
<g filter="url(#filter9_dd_104_195)">
<path d="M30.4 567.014H9.7761C9.28903 567.012 8.82041 566.827 8.46272 566.497C8.10503 566.166 7.88426 565.713 7.84398 565.228C7.63173 562.527 7.23653 553.123 11.0203 545.548C13.5574 540.725 16.8511 536.339 20.776 532.558H9.84196C9.77965 532.56 9.71928 532.58 9.66759 532.615C9.6159 532.65 9.57493 532.698 9.54922 532.755L6.03627 539.298C5.81522 539.714 5.48544 540.063 5.08205 540.306C4.67866 540.55 4.21676 540.679 3.74554 540.681H-3.0242C-3.37398 540.681 -3.72029 540.612 -4.04316 540.478C-4.36604 540.343 -4.65908 540.146 -4.90538 539.898C-5.15169 539.649 -5.34638 539.355 -5.47822 539.031C-5.61006 538.707 -5.67645 538.36 -5.67355 538.01V518.652C-5.67966 518.226 -5.5839 517.804 -5.39423 517.422C-5.20456 517.04 -4.92647 516.709 -4.58308 516.457C-4.26792 516.215 -3.90075 516.05 -3.51072 515.975C-3.12069 515.9 -2.71855 515.917 -2.33626 516.025L2.34767 517.342C4.43931 517.955 6.66981 517.901 8.72953 517.188C11.7373 516.129 14.9011 515.58 18.0901 515.564C21.0844 515.564 24.0559 516.084 26.8724 517.101C28.9633 517.862 31.2427 517.937 33.3787 517.313L38.4286 515.849C38.9478 515.703 39.4998 515.722 40.0076 515.904C40.5153 516.087 40.9535 516.423 41.2609 516.866L44.4664 521.433C44.8017 521.907 44.9757 522.475 44.9625 523.055C44.9493 523.635 44.7497 524.196 44.3933 524.653C42.6249 526.958 40.9878 529.359 39.4898 531.848C39.3073 532.15 39.012 532.368 38.6689 532.454C38.3258 532.539 37.9629 532.484 37.6601 532.301C37.3573 532.119 37.1394 531.824 37.0543 531.481C36.9692 531.137 37.0239 530.775 37.2064 530.472C38.7647 527.903 40.4653 525.423 42.3001 523.043C42.3079 523.034 42.3121 523.022 42.3121 523.01C42.3121 522.998 42.3079 522.987 42.3001 522.978L39.1165 518.44L34.1252 519.904C31.4456 520.684 28.5869 520.589 25.9649 519.633C23.441 518.716 20.7754 518.25 18.0901 518.257C15.203 518.267 12.3381 518.761 9.61508 519.721C7.04335 520.611 4.25915 520.682 1.64509 519.926L-2.98029 518.652V538.01H3.70894L7.20725 531.504C7.46123 531.024 7.84035 530.623 8.30428 530.342C8.76821 530.061 9.29961 529.911 9.84196 529.908H22.4081C22.8085 529.908 23.1996 530.029 23.5291 530.257C23.8586 530.484 24.1109 530.807 24.2524 531.182C24.4047 531.56 24.4387 531.977 24.3499 532.375C24.261 532.773 24.0535 533.136 23.7547 533.414C21.6762 535.346 16.5019 540.513 13.3988 546.734C10.1859 553.174 10.2664 561.181 10.4714 564.342H29.6096C28.9956 557.957 29.4132 551.515 30.8465 545.263C31.5673 542.267 32.6076 539.357 33.9496 536.583C34.0193 536.417 34.1217 536.268 34.2508 536.143C34.3798 536.018 34.5328 535.92 34.7005 535.856C34.8682 535.792 35.0472 535.762 35.2266 535.769C35.4061 535.775 35.5824 535.818 35.7448 535.895C35.9073 535.971 36.0526 536.08 36.172 536.214C36.2914 536.348 36.3825 536.505 36.4397 536.675C36.4969 536.846 36.5191 537.026 36.505 537.205C36.4908 537.384 36.4406 537.558 36.3574 537.717C35.0921 540.317 34.1106 543.046 33.4299 545.856C31.9923 552.066 31.6211 558.476 32.3321 564.811C32.3687 565.085 32.3461 565.364 32.2661 565.628C32.1861 565.893 32.0504 566.138 31.8681 566.346C31.6858 566.553 31.4611 566.72 31.2092 566.834C30.9573 566.948 30.6839 567.007 30.4073 567.006" fill="#EB2D62"/>
<path d="M15.4243 560.458C15.2491 560.455 15.0762 560.418 14.9156 560.348C14.755 560.278 14.6099 560.176 14.4887 560.05C14.3676 559.923 14.2727 559.774 14.2097 559.61C14.1467 559.447 14.1167 559.272 14.1216 559.097C14.2021 555.65 14.7583 550.644 16.9832 546.407C17.1623 546.12 17.4432 545.911 17.7696 545.823C18.0961 545.735 18.4438 545.773 18.743 545.931C19.0422 546.088 19.2708 546.353 19.3828 546.672C19.4949 546.991 19.4821 547.341 19.3471 547.651C17.3564 551.427 16.8588 555.994 16.7856 559.156C16.7779 559.504 16.6342 559.835 16.3853 560.079C16.1363 560.322 15.8018 560.458 15.4536 560.458" fill="#EB2D62"/>
<path d="M0.867169 532.417C0.691978 532.418 0.518333 532.385 0.35629 532.318C0.194247 532.251 0.0470281 532.153 -0.0768526 532.029C-0.200733 531.905 -0.298811 531.758 -0.365406 531.596C-0.432001 531.434 -0.465794 531.261 -0.464823 531.085V525.23C-0.464823 524.877 -0.324489 524.538 -0.0746917 524.289C0.175105 524.039 0.513903 523.898 0.867169 523.898C1.22044 523.898 1.55923 524.039 1.80903 524.289C2.05883 524.538 2.19916 524.877 2.19916 525.23V531.085C2.19916 531.439 2.05883 531.777 1.80903 532.027C1.55923 532.277 1.22044 532.417 0.867169 532.417" fill="#EB2D62"/>
<path d="M30.8126 566.878H10.1886C9.85146 566.875 9.52731 566.747 9.27961 566.519C9.0319 566.29 8.87846 565.977 8.84931 565.641C8.64439 562.977 8.2565 553.712 11.9671 546.276C15.0702 540.055 19.981 534.961 22.6815 532.444H10.2399C10.0697 532.447 9.90376 532.497 9.75947 532.587C9.61518 532.677 9.49795 532.805 9.42016 532.956L5.91453 539.477C5.74424 539.797 5.4904 540.066 5.17989 540.254C4.86939 540.442 4.51378 540.543 4.15074 540.545H-2.61168C-2.88079 540.541 -3.14652 540.485 -3.39369 540.378C-3.64085 540.272 -3.86461 540.117 -4.05218 539.924C-4.23976 539.731 -4.38747 539.503 -4.48689 539.253C-4.58632 539.003 -4.6355 538.736 -4.63162 538.467V519.094C-4.6345 518.769 -4.56043 518.448 -4.41543 518.156C-4.27043 517.865 -4.05863 517.612 -3.7973 517.418C-3.55654 517.232 -3.27541 517.106 -2.97664 517.049C-2.67787 516.991 -2.36984 517.005 -2.07742 517.089L2.60651 518.406C4.83005 519.043 7.19695 518.969 9.37625 518.194C12.3205 517.157 15.4176 516.62 18.5392 516.606C21.4668 516.587 24.3751 517.082 27.1313 518.07C29.34 518.874 31.7479 518.951 34.0035 518.289L39.0607 516.826C39.4625 516.71 39.8906 516.723 40.2845 516.864C40.6784 517.004 41.0183 517.265 41.2562 517.609L44.4618 522.183C44.7214 522.552 44.8564 522.995 44.8472 523.446C44.838 523.898 44.685 524.335 44.4106 524.693C42.5954 527.029 40.9167 529.468 39.3827 531.997C39.3405 532.09 39.2792 532.174 39.2028 532.242C39.1263 532.31 39.0364 532.361 38.9389 532.393C38.8414 532.424 38.7384 532.434 38.6366 532.423C38.5348 532.412 38.4364 532.38 38.3479 532.328C38.2594 532.277 38.1826 532.207 38.1226 532.124C38.0626 532.041 38.0207 531.947 37.9996 531.847C37.9785 531.746 37.9787 531.643 38.0001 531.543C38.0215 531.443 38.0636 531.348 38.1239 531.265C39.6659 528.709 41.3494 526.242 43.1664 523.873C43.2501 523.763 43.2954 523.628 43.2954 523.489C43.2954 523.35 43.2501 523.216 43.1664 523.105L39.9608 518.531C39.9009 518.439 39.8131 518.369 39.7104 518.331C39.6076 518.292 39.4953 518.288 39.39 518.319L34.3328 519.782C31.7802 520.537 29.0523 520.45 26.5531 519.533C23.9721 518.598 21.2478 518.12 18.5026 518.121C15.5455 518.136 12.6117 518.646 9.82269 519.629C7.36835 520.492 4.70673 520.574 2.20398 519.863L-2.47994 518.545C-2.55623 518.526 -2.6358 518.524 -2.71298 518.539C-2.79015 518.555 -2.86302 518.587 -2.92638 518.633C-3.00221 518.695 -3.06323 518.774 -3.10501 518.862C-3.14679 518.951 -3.16828 519.048 -3.1679 519.146V538.467C-3.17392 538.622 -3.11909 538.773 -3.01513 538.888C-2.91117 539.002 -2.76634 539.072 -2.61168 539.082H4.16538C4.26401 539.078 4.35986 539.048 4.44335 538.995C4.52683 538.942 4.59502 538.869 4.64109 538.781L8.14672 532.261C8.34994 531.877 8.65312 531.555 9.02417 531.33C9.39522 531.104 9.82032 530.983 10.2545 530.98H22.8206C23.0998 530.979 23.3725 531.064 23.6026 531.222C23.8327 531.38 24.0092 531.605 24.1087 531.865C24.2122 532.134 24.234 532.428 24.1716 532.709C24.1091 532.99 23.965 533.246 23.7574 533.446C21.1446 535.869 16.3143 540.853 13.2771 546.934C9.7861 553.931 10.1008 562.699 10.3057 565.414H30.6735C29.9564 558.88 30.3449 552.271 31.8225 545.866C32.533 542.91 33.5586 540.04 34.8817 537.303C34.9214 537.214 34.9784 537.134 35.0494 537.068C35.1203 537.001 35.2038 536.95 35.295 536.916C35.3862 536.882 35.4832 536.866 35.5804 536.871C35.6775 536.875 35.7729 536.898 35.861 536.939C35.949 536.981 36.0279 537.039 36.0931 537.111C36.1583 537.184 36.2084 537.268 36.2406 537.36C36.2727 537.452 36.2863 537.549 36.2804 537.646C36.2745 537.743 36.2494 537.838 36.2064 537.925C34.9417 540.568 33.9604 543.338 33.2789 546.188C31.8245 552.47 31.4508 558.955 32.1738 565.363C32.199 565.552 32.1834 565.745 32.1278 565.928C32.0723 566.111 31.9781 566.28 31.8518 566.424C31.7246 566.566 31.569 566.68 31.395 566.758C31.221 566.836 31.0326 566.877 30.8418 566.878" fill="#FF7E82"/>
<path d="M15.895 560.368C15.7008 560.368 15.5147 560.291 15.3774 560.154C15.2402 560.017 15.1631 559.831 15.1631 559.636C15.2363 556.248 15.7852 551.344 17.9588 547.195C18.0517 547.028 18.2062 546.904 18.3893 546.849C18.5725 546.794 18.7697 546.813 18.9389 546.902C19.1081 546.991 19.2358 547.143 19.2947 547.325C19.3537 547.506 19.3391 547.704 19.2542 547.875C17.2196 551.762 16.7 556.424 16.6268 559.651C16.6268 559.845 16.5497 560.031 16.4125 560.169C16.2752 560.306 16.0891 560.383 15.895 560.383" fill="#FF7E82"/>
<path d="M1.30901 532.259C1.11491 532.259 0.928757 532.182 0.791506 532.044C0.654255 531.907 0.577148 531.721 0.577148 531.527V525.672C0.577148 525.478 0.654255 525.292 0.791506 525.155C0.928757 525.017 1.11491 524.94 1.30901 524.94C1.50311 524.94 1.68927 525.017 1.82652 525.155C1.96377 525.292 2.04088 525.478 2.04088 525.672V531.527C2.04088 531.721 1.96377 531.907 1.82652 532.044C1.68927 532.182 1.50311 532.259 1.30901 532.259Z" fill="#FF7E82"/>
<path d="M30.3442 565.926H9.7203C9.50127 565.923 9.29101 565.839 9.13016 565.691C8.96931 565.542 8.86927 565.339 8.84938 565.121C8.64445 562.486 8.25657 553.323 11.9159 545.997C15.019 539.776 19.9664 534.697 22.6084 532.224C22.6711 532.162 22.7143 532.083 22.7325 531.998C22.7507 531.912 22.7432 531.822 22.7109 531.741C22.6851 531.666 22.6367 531.601 22.5724 531.555C22.5082 531.509 22.4312 531.485 22.3523 531.484H9.78616C9.53446 531.485 9.28756 531.553 9.07127 531.682C8.85498 531.811 8.67724 531.995 8.55663 532.216L5.051 538.737C4.91905 538.982 4.72389 539.187 4.4858 539.332C4.2477 539.476 3.97536 539.554 3.69705 539.557H-3.08001C-3.28761 539.553 -3.49244 539.508 -3.68278 539.425C-3.87312 539.342 -4.04524 539.223 -4.18933 539.073C-4.33341 538.924 -4.44663 538.747 -4.52251 538.554C-4.59838 538.361 -4.63544 538.154 -4.63156 537.947V518.604C-4.62796 518.358 -4.5688 518.117 -4.45852 517.897C-4.34824 517.678 -4.18971 517.487 -3.99484 517.337C-3.8116 517.193 -3.59641 517.094 -3.36725 517.049C-3.13808 517.005 -2.90158 517.016 -2.67748 517.081L2.00645 518.399C4.31205 519.056 6.765 518.979 9.02503 518.179C11.9195 517.157 14.9645 516.625 18.0343 516.606C20.911 516.597 23.767 517.092 26.4727 518.069C28.7753 518.909 31.2865 518.989 33.6376 518.296L38.6948 516.832C39.0005 516.748 39.3249 516.761 39.6227 516.87C39.9206 516.979 40.177 517.178 40.3561 517.44L43.5617 522.007C43.7657 522.295 43.8716 522.642 43.8637 522.995C43.8558 523.348 43.7345 523.689 43.5178 523.968C41.7247 526.314 40.0633 528.757 38.5411 531.287C38.5042 531.347 38.4449 531.39 38.3763 531.406C38.3077 531.423 38.2353 531.411 38.1752 531.375C38.115 531.338 38.0719 531.278 38.0555 531.21C38.039 531.141 38.0505 531.069 38.0873 531.009C39.6214 528.478 41.2951 526.035 43.1006 523.69C43.2426 523.498 43.3193 523.266 43.3193 523.028C43.3193 522.789 43.2426 522.557 43.1006 522.365L39.895 517.799C39.78 517.628 39.6145 517.497 39.4216 517.425C39.2287 517.353 39.0181 517.343 38.8192 517.396L33.7913 518.801C31.3318 519.525 28.7048 519.44 26.297 518.56C23.6543 517.594 20.8627 517.098 18.0489 517.096C15.0337 517.117 12.0431 517.641 9.20067 518.647C6.84331 519.478 4.28633 519.558 1.88203 518.874L-2.8019 517.557C-2.9467 517.517 -3.09898 517.511 -3.24646 517.54C-3.39393 517.569 -3.53247 517.633 -3.65086 517.725C-3.78494 517.829 -3.8931 517.962 -3.96677 518.114C-4.04045 518.267 -4.07762 518.434 -4.07534 518.604V537.976C-4.08022 538.114 -4.05773 538.252 -4.00915 538.381C-3.96057 538.51 -3.88687 538.629 -3.7923 538.729C-3.69773 538.83 -3.58416 538.911 -3.45814 538.968C-3.33212 539.024 -3.19614 539.055 -3.05805 539.059H3.71901C3.90239 539.056 4.0815 539.003 4.23739 538.907C4.39328 538.81 4.52015 538.673 4.60457 538.51L8.08824 531.975C8.2519 531.666 8.49611 531.406 8.79502 531.225C9.09392 531.043 9.43639 530.946 9.78616 530.943H22.3523C22.5384 530.943 22.72 531 22.873 531.105C23.026 531.211 23.1431 531.361 23.2086 531.536C23.2795 531.716 23.2951 531.913 23.2533 532.102C23.2116 532.291 23.1145 532.463 22.9744 532.597C20.3396 535.049 15.4581 540.076 12.3916 546.217C8.79815 553.426 9.17872 562.464 9.37632 565.062C9.38367 565.148 9.42313 565.229 9.48686 565.287C9.55059 565.345 9.63392 565.377 9.7203 565.377H30.3442C30.3928 565.377 30.4409 565.367 30.4851 565.347C30.5294 565.326 30.5687 565.297 30.6004 565.26C30.6326 565.223 30.6565 565.18 30.6704 565.133C30.6843 565.087 30.6879 565.037 30.6809 564.989C29.9497 558.464 30.3308 551.861 31.808 545.463C32.5139 542.542 33.5271 539.703 34.8306 536.995C34.8621 536.932 34.9173 536.883 34.9844 536.86C35.0515 536.836 35.125 536.84 35.1892 536.871C35.2211 536.885 35.2498 536.905 35.2735 536.931C35.2973 536.957 35.3155 536.987 35.3272 537.02C35.3388 537.053 35.3436 537.088 35.3413 537.122C35.3389 537.157 35.3295 537.191 35.3136 537.222C34.0258 539.9 33.0249 542.706 32.3276 545.595C30.8628 551.923 30.4866 558.454 31.2151 564.909C31.2305 565.033 31.2195 565.159 31.183 565.279C31.1464 565.399 31.0851 565.509 31.0029 565.604C30.921 565.698 30.8199 565.774 30.7062 565.826C30.5926 565.877 30.4691 565.904 30.3442 565.904" fill="#FFABA6"/>
<path d="M15.4266 559.419C15.356 559.417 15.289 559.387 15.2398 559.337C15.1906 559.286 15.1631 559.219 15.1631 559.148C15.2436 555.811 15.7852 550.988 17.9076 546.933C17.9454 546.879 18.0014 546.841 18.0652 546.826C18.129 546.811 18.1962 546.819 18.2544 546.849C18.3126 546.88 18.3577 546.93 18.3814 546.991C18.4051 547.053 18.4058 547.12 18.3833 547.182C16.2975 551.141 15.7705 555.884 15.6973 559.163C15.6974 559.197 15.6905 559.231 15.6772 559.262C15.6638 559.294 15.6443 559.322 15.6198 559.346C15.5952 559.37 15.5661 559.389 15.5341 559.401C15.5022 559.414 15.4681 559.42 15.4339 559.419" fill="#FFABA6"/>
<path d="M0.847935 531.359C0.777367 531.359 0.709577 531.331 0.659 531.282C0.608422 531.233 0.579056 531.166 0.577148 531.095V525.204C0.579056 525.133 0.608422 525.066 0.659 525.017C0.709577 524.968 0.777367 524.94 0.847935 524.94C0.917811 524.94 0.984829 524.968 1.03424 525.017C1.08365 525.067 1.11141 525.134 1.11141 525.204V531.095C1.11141 531.165 1.08365 531.232 1.03424 531.281C0.984829 531.331 0.917811 531.359 0.847935 531.359" fill="#FFABA6"/>
</g>
</g>
<g style="mix-blend-mode:lighten" filter="url(#filter10_f_104_195)">
<ellipse cx="14.3438" cy="108.964" rx="22.3968" ry="9.64705" transform="rotate(-36.5282 14.3438 108.964)" fill="#FF6376"/>
</g>
<g style="mix-blend-mode:lighten" filter="url(#filter11_f_104_195)">
<ellipse cx="32.8748" cy="102.632" rx="13.6521" ry="5.88044" transform="rotate(-36.5282 32.8748 102.632)" fill="url(#paint2_radial_104_195)"/>
</g>
<g style="mix-blend-mode:lighten" filter="url(#filter12_f_104_195)">
<ellipse cx="3.6302" cy="87.9152" rx="19.0727" ry="8.52719" transform="rotate(-36.5282 3.6302 87.9152)" fill="#98EA00"/>
</g>
<g filter="url(#filter13_dd_104_195)">
<path d="M25.08 115.257C22.2674 116.302 19.1552 116.188 16.4261 114.942C13.697 113.695 11.5739 111.416 10.5226 108.606C9.77053 106.626 9.59979 104.472 10.0305 102.399C10.2407 101.298 10.733 100.272 11.4592 99.4191C12.1854 98.5665 13.1206 97.917 14.1732 97.5344C15.5545 97.0827 17.0379 97.0455 18.4401 97.4276C19.3567 96.0948 20.6726 95.0871 22.1983 94.5496C25.3216 93.5784 28.0016 95.6575 28.7511 96.3167C30.084 97.5252 31.0999 99.0424 31.7097 100.735C32.203 102.058 32.4452 103.461 32.4238 104.872C32.4184 105.184 32.2893 105.482 32.0647 105.699C31.8402 105.916 31.5386 106.035 31.2264 106.029C30.9141 106.024 30.6168 105.895 30.3998 105.67C30.1827 105.446 30.0638 105.144 30.0691 104.832C30.0982 103.724 29.9207 102.62 29.5456 101.576C29.0826 100.229 28.2919 99.0176 27.2446 98.0516C26.2027 97.108 24.5231 96.3055 22.9411 96.7642C21.866 97.1667 20.9456 97.8987 20.3114 98.8557C20.0774 99.2432 19.7346 99.5534 19.3257 99.7477C18.8808 99.8727 18.4083 99.8586 17.9717 99.7072C17.0057 99.4261 15.979 99.4301 15.0152 99.7189C14.3288 99.9714 13.7206 100.4 13.2516 100.961C12.7826 101.522 12.4691 102.197 12.3425 102.917C12.0053 104.554 12.1409 106.253 12.7335 107.816C13.3402 109.438 14.4035 110.85 15.7949 111.881C17.1862 112.911 18.8462 113.517 20.5745 113.625C22.3027 113.734 24.0253 113.339 25.5343 112.49C27.0432 111.64 28.2741 110.372 29.0782 108.839C29.1494 108.701 29.2471 108.578 29.3658 108.478C29.4845 108.378 29.6219 108.303 29.7699 108.256C29.9179 108.209 30.0737 108.192 30.2283 108.206C30.383 108.22 30.5333 108.264 30.6708 108.336C30.8083 108.408 30.9301 108.507 31.0294 108.626C31.1286 108.745 31.2032 108.883 31.2489 109.031C31.2947 109.18 31.3106 109.336 31.2958 109.49C31.2811 109.645 31.2359 109.795 31.1629 109.932C29.8701 112.406 27.7072 114.313 25.0913 115.287L25.08 115.257ZM6.08256 122.374C3.26995 123.419 0.157712 123.305 -2.57138 122.058C-5.30047 120.812 -7.42355 118.533 -8.47486 115.723C-9.23582 113.735 -9.41054 111.57 -8.97828 109.485C-8.76154 108.384 -8.26447 107.358 -7.53514 106.506C-6.80582 105.654 -5.86892 105.004 -4.81505 104.62C-3.43541 104.17 -1.95431 104.134 -0.554273 104.516C0.368492 103.173 1.69584 102.161 3.23426 101.626C4.16872 101.342 5.16016 101.3 6.11524 101.505C6.42135 101.567 6.6901 101.749 6.86234 102.009C7.03459 102.27 7.09623 102.589 7.03371 102.895C6.97119 103.201 6.78963 103.469 6.52897 103.642C6.2683 103.814 5.9499 103.876 5.64379 103.813C5.07796 103.686 4.48901 103.706 3.93309 103.871C2.84356 104.272 1.90985 105.009 1.26703 105.976C1.06557 106.394 0.710287 106.718 0.275485 106.88C-0.159316 107.042 -0.639951 107.03 -1.06589 106.846C-2.01925 106.558 -3.03556 106.551 -3.99277 106.826C-4.67601 107.076 -5.28179 107.501 -5.74979 108.058C-6.21778 108.615 -6.53165 109.285 -6.66014 110.001C-6.99735 111.638 -6.86176 113.338 -6.2692 114.901C-5.65451 116.532 -4.57746 117.948 -3.16996 118.977C-1.76246 120.005 -0.0855835 120.601 1.65533 120.691C3.39624 120.781 5.12562 120.362 6.6317 119.484C8.13779 118.606 9.35522 117.308 10.1349 115.749C10.2038 115.61 10.2993 115.487 10.416 115.385C10.5326 115.284 10.6682 115.206 10.8149 115.157C10.9615 115.107 11.1165 115.088 11.2708 115.098C11.4252 115.109 11.5759 115.15 11.7144 115.219C11.853 115.288 11.9766 115.383 12.0782 115.5C12.1798 115.616 12.2574 115.752 12.3066 115.899C12.3559 116.045 12.3757 116.2 12.3651 116.355C12.3545 116.509 12.3135 116.66 12.2446 116.798C10.9658 119.364 8.75864 121.346 6.07127 122.343L6.08256 122.374ZM17.6229 109.824C17.4106 109.903 17.1802 109.919 16.9591 109.87C16.738 109.822 16.5354 109.711 16.3753 109.551C15.6778 108.849 15.164 107.987 14.8795 107.04C14.595 106.092 14.5485 105.089 14.7441 104.12C14.8093 103.814 14.9935 103.546 15.2562 103.375C15.5188 103.205 15.8384 103.146 16.1446 103.211C16.4508 103.276 16.7186 103.461 16.889 103.723C17.0594 103.986 17.1184 104.305 17.0532 104.612C16.9155 105.283 16.9741 105.98 17.2219 106.619C17.4027 107.106 17.6854 107.549 18.0512 107.918C18.1893 108.058 18.2904 108.23 18.3454 108.419C18.4004 108.607 18.4075 108.807 18.3661 108.999C18.3248 109.191 18.2362 109.37 18.1084 109.519C17.9806 109.669 17.8177 109.784 17.6342 109.854L17.6229 109.824ZM-1.57446 117.015C-1.78678 117.094 -2.01717 117.11 -2.2383 117.061C-2.45943 117.013 -2.66203 116.902 -2.82206 116.742C-3.53179 116.037 -4.05451 115.166 -4.34289 114.209C-4.63127 113.251 -4.6762 112.236 -4.47362 111.257C-4.43987 111.104 -4.37641 110.959 -4.28684 110.831C-4.19726 110.703 -4.08334 110.594 -3.95157 110.51C-3.8198 110.426 -3.67276 110.369 -3.51886 110.342C-3.36495 110.314 -3.20719 110.318 -3.05458 110.351C-2.90197 110.385 -2.75751 110.449 -2.62943 110.538C-2.50135 110.628 -2.39217 110.742 -2.30811 110.873C-2.22406 111.005 -2.16679 111.152 -2.13956 111.306C-2.11233 111.46 -2.11568 111.618 -2.14942 111.77C-2.28512 112.442 -2.22444 113.138 -1.97467 113.776C-1.7939 114.263 -1.51114 114.706 -1.14534 115.075C-1.01355 115.216 -0.918484 115.388 -0.868481 115.575C-0.818478 115.762 -0.815058 115.958 -0.858522 116.147C-0.901985 116.335 -0.991007 116.51 -1.11779 116.656C-1.24457 116.803 -1.40525 116.915 -1.58576 116.985" fill="#EB2D62"/>
<path d="M24.7778 114.443C22.0966 115.441 19.1289 115.334 16.5264 114.146C13.9238 112.958 11.8991 110.785 10.8965 108.106C10.1825 106.221 10.0218 104.171 10.4333 102.198C10.6249 101.185 11.0771 100.239 11.7452 99.4543C12.4134 98.6691 13.2745 98.0715 14.2438 97.7202C15.5288 97.3054 16.9063 97.2713 18.2102 97.6219L18.5317 97.6883L18.7335 97.4337C19.5979 96.1839 20.8354 95.2394 22.2689 94.7353C25.1332 93.847 27.6197 95.7773 28.3125 96.3955C29.574 97.5364 30.5368 98.9688 31.1171 100.568C31.5888 101.828 31.8183 103.166 31.7938 104.512C31.796 104.599 31.7806 104.686 31.7485 104.767C31.7163 104.848 31.668 104.922 31.6066 104.984C31.5452 105.046 31.4718 105.095 31.391 105.128C31.3101 105.16 31.2235 105.177 31.1362 105.175C31.0489 105.174 30.9629 105.154 30.8832 105.119C30.8035 105.083 30.7319 105.032 30.6726 104.968C30.6133 104.904 30.5676 104.828 30.5383 104.746C30.5089 104.664 30.4965 104.577 30.5018 104.489C30.5211 103.306 30.3167 102.129 29.8992 101.022C29.3917 99.6226 28.552 98.3677 27.4524 97.3649C26.2827 96.3378 24.4111 95.4275 22.648 95.9743C21.4676 96.4051 20.4539 97.1986 19.7523 98.2409C19.5721 98.5458 19.312 98.7955 19 98.9631C18.6488 99.0445 18.2816 99.0233 17.942 98.902C16.8773 98.5999 15.7481 98.6111 14.6896 98.9343C13.9266 99.2127 13.2491 99.6848 12.7238 100.304C12.1984 100.924 11.8432 101.669 11.693 102.467C11.3341 104.201 11.4761 106.001 12.1023 107.656C12.7432 109.375 13.8682 110.871 15.3415 111.964C16.8147 113.057 18.5729 113.7 20.4037 113.814C22.2344 113.929 24.0591 113.511 25.6573 112.611C27.2554 111.71 28.5585 110.366 29.4089 108.741C29.4484 108.665 29.5025 108.598 29.5681 108.543C29.6338 108.488 29.7096 108.447 29.7913 108.422C29.8731 108.396 29.959 108.387 30.0441 108.395C30.1293 108.404 30.212 108.428 30.2875 108.469C30.4388 108.549 30.5522 108.686 30.6028 108.849C30.6534 109.013 30.6371 109.19 30.5575 109.341C29.3281 111.701 27.2662 113.52 24.7718 114.445L24.7778 114.443ZM5.76306 121.532C3.08268 122.525 0.117634 122.416 -2.48216 121.227C-5.08196 120.039 -7.10441 117.868 -8.10619 115.19C-8.82374 113.31 -8.99276 111.264 -8.59361 109.291C-8.40084 108.272 -7.94422 107.321 -7.26925 106.533C-6.59428 105.744 -5.72454 105.147 -4.74672 104.8C-3.46179 104.385 -2.0843 104.351 -0.780394 104.702L-0.458842 104.768L-0.263076 104.516C0.603828 103.265 1.84312 102.32 3.27835 101.815C4.12476 101.558 5.02255 101.52 5.88759 101.705C5.97124 101.723 6.05058 101.757 6.12108 101.805C6.19157 101.854 6.25184 101.915 6.29844 101.987C6.34504 102.059 6.37706 102.139 6.39267 102.223C6.40829 102.307 6.40718 102.394 6.38943 102.477C6.37168 102.561 6.33762 102.64 6.2892 102.711C6.24078 102.781 6.17895 102.842 6.10724 102.888C6.03553 102.935 5.95535 102.967 5.87126 102.982C5.78718 102.998 5.70084 102.997 5.61718 102.979C4.96304 102.823 4.27965 102.84 3.63402 103.028C2.4543 103.46 1.44096 104.253 0.738307 105.295C0.672654 105.466 0.571291 105.622 0.440952 105.751C0.310613 105.88 0.15428 105.98 -0.0176596 106.044C-0.189599 106.108 -0.373211 106.135 -0.556296 106.123C-0.739382 106.11 -0.917749 106.059 -1.07955 105.973C-2.13311 105.678 -3.24885 105.692 -4.29492 106.012C-5.05898 106.29 -5.73754 106.762 -6.26396 107.382C-6.79038 108.002 -7.14656 108.748 -7.29754 109.547C-7.65407 111.28 -7.51 113.079 -6.88216 114.734C-6.23639 116.467 -5.0985 117.973 -3.60827 119.069C-2.11804 120.164 -0.340361 120.8 1.50639 120.899C3.35314 120.998 5.18854 120.555 6.78715 119.625C8.38575 118.695 9.67794 117.318 10.505 115.664C10.5427 115.588 10.5951 115.52 10.6592 115.464C10.7232 115.408 10.7977 115.366 10.8782 115.338C10.9588 115.311 11.0439 115.3 11.1287 115.306C11.2135 115.312 11.2964 115.334 11.3726 115.372C11.4487 115.41 11.5167 115.462 11.5726 115.526C11.6285 115.59 11.6713 115.665 11.6984 115.745C11.7256 115.826 11.7366 115.911 11.7309 115.996C11.7251 116.08 11.7027 116.163 11.6649 116.239C10.4463 118.685 8.34263 120.574 5.78123 121.525L5.76306 121.532ZM17.3329 109.005C17.2163 109.049 17.0896 109.057 16.9682 109.03C16.8467 109.003 16.7356 108.942 16.6482 108.853C16.0936 108.303 15.6665 107.638 15.397 106.904C15.0358 105.948 14.9526 104.91 15.1568 103.909C15.1743 103.826 15.208 103.747 15.256 103.677C15.304 103.607 15.3653 103.547 15.4364 103.5C15.5076 103.454 15.5872 103.422 15.6707 103.406C15.7541 103.391 15.8399 103.392 15.923 103.409C16.0061 103.427 16.085 103.46 16.1551 103.508C16.2252 103.556 16.2851 103.618 16.3315 103.689C16.3779 103.76 16.4098 103.84 16.4255 103.923C16.4411 104.007 16.4401 104.092 16.4226 104.175C16.2897 104.848 16.3243 105.543 16.5232 106.2C16.7222 106.856 17.0794 107.454 17.5635 107.939C17.6241 108 17.6721 108.071 17.7047 108.15C17.7374 108.229 17.7541 108.314 17.7539 108.399C17.7536 108.485 17.7365 108.569 17.7034 108.648C17.6703 108.727 17.6219 108.798 17.561 108.858C17.4962 108.923 17.4185 108.973 17.3329 109.005V109.005ZM-1.87579 116.166C-1.99304 116.211 -2.12077 116.221 -2.24343 116.194C-2.36608 116.168 -2.47835 116.106 -2.56655 116.017C-3.20739 115.378 -3.67928 114.589 -3.93974 113.723C-4.2002 112.856 -4.24107 111.938 -4.05865 111.052C-4.01932 110.886 -3.91603 110.742 -3.77127 110.652C-3.6265 110.562 -3.45197 110.532 -3.28569 110.57C-3.20257 110.588 -3.12372 110.621 -3.05363 110.669C-2.98353 110.717 -2.92358 110.779 -2.87719 110.85C-2.83079 110.921 -2.79887 111.001 -2.78324 111.084C-2.76761 111.168 -2.76859 111.253 -2.7861 111.336C-2.91898 112.009 -2.88442 112.704 -2.68547 113.361C-2.48651 114.017 -2.12925 114.615 -1.64515 115.1C-1.5679 115.177 -1.51119 115.272 -1.48024 115.376C-1.4493 115.48 -1.44513 115.59 -1.46812 115.697C-1.49111 115.803 -1.54051 115.902 -1.61177 115.984C-1.68302 116.066 -1.77383 116.129 -1.87579 116.166" fill="#FF6376"/>
<path d="M24.6611 114.361C22.0868 115.317 19.2387 115.215 16.7391 114.078C14.2395 112.941 12.2917 110.86 11.3212 108.291C10.6376 106.479 10.4826 104.509 10.8742 102.612C11.0523 101.668 11.4735 100.786 12.0962 100.054C12.7189 99.322 13.5217 98.765 14.4253 98.4378C15.6399 98.0477 16.9427 98.0254 18.1698 98.3739C18.3569 98.4236 18.5486 98.4539 18.7418 98.4643C18.8696 98.3284 18.9889 98.1848 19.0992 98.0343C19.9135 96.8485 21.0792 95.9481 22.4322 95.4597C24.5414 94.8046 26.7185 95.8495 28.0802 97.0397C29.2885 98.1348 30.2107 99.5088 30.7662 101.042C31.2214 102.256 31.4444 103.545 31.4235 104.841C31.4236 104.872 31.4175 104.903 31.4053 104.932C31.3932 104.96 31.3754 104.986 31.3529 105.007C31.3305 105.028 31.3039 105.045 31.2748 105.055C31.2457 105.066 31.2147 105.071 31.1838 105.069C31.1528 105.069 31.1221 105.063 31.0935 105.051C31.0649 105.039 31.0389 105.021 31.0172 104.999C30.9954 104.977 30.9783 104.951 30.9669 104.922C30.9554 104.893 30.9498 104.862 30.9504 104.831C30.9604 103.596 30.7376 102.371 30.2936 101.218C29.7672 99.7561 28.89 98.4455 27.7389 97.4016C26.4845 96.2956 24.4594 95.3251 22.5313 95.8921C21.2652 96.3436 20.1774 97.1894 19.4279 98.3052C19.2883 98.5432 19.0932 98.7438 18.8591 98.8899C18.6834 98.9554 18.4504 98.9043 18.0297 98.8126C16.8894 98.4895 15.6795 98.5063 14.5486 98.8612C13.7207 99.1633 12.9852 99.6751 12.4141 100.346C11.843 101.018 11.4558 101.826 11.2904 102.692C10.9268 104.511 11.091 106.397 11.7636 108.126C12.4324 109.919 13.6062 111.48 15.143 112.62C16.6799 113.76 18.514 114.431 20.4238 114.551C22.3335 114.671 24.2372 114.236 25.9048 113.297C27.5724 112.359 28.9326 110.957 29.8209 109.262C29.8336 109.234 29.8517 109.209 29.8741 109.188C29.8965 109.168 29.9228 109.151 29.9515 109.141C29.9802 109.13 30.0108 109.125 30.0414 109.126C30.072 109.127 30.1021 109.134 30.1299 109.147C30.1584 109.159 30.1842 109.177 30.2056 109.199C30.227 109.221 30.2436 109.248 30.2544 109.277C30.2651 109.306 30.2699 109.337 30.2683 109.367C30.2667 109.398 30.2588 109.429 30.2451 109.456C29.0554 111.726 27.0656 113.474 24.6611 114.361V114.361ZM5.65241 121.447C3.07863 122.403 0.231068 122.301 -2.26762 121.163C-4.7663 120.025 -6.71279 117.944 -7.68146 115.375C-8.36706 113.564 -8.52417 111.596 -8.13449 109.699C-7.95456 108.751 -7.53104 107.867 -6.9056 107.133C-6.28017 106.398 -5.47437 105.84 -4.56749 105.511C-3.35251 105.124 -2.0505 105.102 -0.823004 105.448C-0.63631 105.499 -0.444428 105.529 -0.250965 105.538C-0.124467 105.401 -0.00519586 105.257 0.106363 105.108C0.91813 103.923 2.08201 103.023 3.43334 102.536C4.21443 102.299 5.04291 102.266 5.84046 102.439C5.87132 102.444 5.90087 102.455 5.92724 102.471C5.9536 102.488 5.97622 102.51 5.99366 102.536C6.0111 102.562 6.02298 102.591 6.02857 102.622C6.03416 102.653 6.03332 102.684 6.02612 102.715C6.01318 102.775 5.97718 102.829 5.92571 102.863C5.87425 102.898 5.81134 102.911 5.75026 102.9C5.02948 102.741 4.27988 102.771 3.57401 102.987C2.30527 103.448 1.21886 104.306 0.475859 105.433C0.335513 105.673 0.138043 105.874 -0.0990014 106.02C-0.268668 106.083 -0.501691 106.032 -0.928408 105.942C-2.06276 105.607 -3.27047 105.611 -4.40258 105.954C-5.23124 106.255 -5.96734 106.766 -6.53858 107.438C-7.10983 108.109 -7.49658 108.918 -7.66084 109.784C-8.04116 111.596 -7.89698 113.48 -7.24518 115.213C-6.56841 117.019 -5.37949 118.588 -3.82409 119.729C-2.26869 120.869 -0.414368 121.531 1.51166 121.634C3.4377 121.736 5.35179 121.275 7.01941 120.306C8.68703 119.337 10.0357 117.902 10.9003 116.178C10.9282 116.123 10.9769 116.081 11.0357 116.061C11.0945 116.042 11.1586 116.047 11.2139 116.075C11.2691 116.103 11.311 116.151 11.3303 116.21C11.3497 116.269 11.3449 116.333 11.3169 116.388C10.1382 118.732 8.11355 120.54 5.65241 121.447V121.447ZM17.2041 108.928C17.1622 108.944 17.1165 108.947 17.0726 108.938C17.0287 108.929 16.9885 108.907 16.9567 108.875C16.3664 108.287 15.9313 107.561 15.6904 106.763C15.4496 105.965 15.4105 105.12 15.5766 104.303C15.5829 104.273 15.5951 104.244 15.6126 104.219C15.63 104.193 15.6523 104.172 15.6782 104.155C15.704 104.138 15.733 104.127 15.7633 104.122C15.7936 104.116 15.8247 104.117 15.8547 104.123C15.9154 104.136 15.9687 104.172 16.0033 104.224C16.0379 104.275 16.0512 104.338 16.0404 104.399C15.8656 105.235 15.933 106.103 16.2346 106.901C16.4625 107.517 16.8214 108.075 17.2866 108.538C17.3299 108.583 17.3542 108.644 17.3545 108.707C17.3548 108.769 17.3311 108.83 17.2882 108.876C17.2603 108.893 17.2295 108.904 17.1973 108.91L17.2041 108.928ZM-2.01138 116.071C-2.05425 116.086 -2.10045 116.089 -2.14507 116.08C-2.18969 116.071 -2.23107 116.051 -2.26484 116.02C-2.77537 115.506 -3.17028 114.888 -3.42319 114.209C-3.75546 113.327 -3.83026 112.369 -3.63887 111.446C-3.62581 111.385 -3.58917 111.332 -3.53701 111.298C-3.48485 111.265 -3.42145 111.253 -3.36075 111.266C-3.30005 111.279 -3.24702 111.316 -3.21334 111.368C-3.17966 111.42 -3.16808 111.484 -3.18114 111.544C-3.3511 112.38 -3.28166 113.246 -2.98084 114.044C-2.75507 114.66 -2.39585 115.219 -1.92889 115.681C-1.88555 115.726 -1.86124 115.787 -1.86094 115.849C-1.86064 115.912 -1.88437 115.973 -1.92727 116.018C-1.95516 116.035 -1.986 116.047 -2.01816 116.052" fill="#FF8E8F"/>
</g>
<g filter="url(#filter14_d_104_195)">
<path d="M17.824 95.5714C17.581 95.6623 17.3148 95.6703 17.0668 95.5943C16.8188 95.5182 16.6029 95.3624 16.4525 95.151L7.7273 82.8543C7.43032 85.353 6.23876 88.5993 2.80749 91.873C-1.51031 95.8191 -6.54235 98.9038 -12.018 100.961C-12.1924 101.022 -12.3788 101.042 -12.562 101.018C-12.7453 100.993 -12.9203 100.926 -13.0728 100.822C-13.2253 100.717 -13.3511 100.578 -13.4399 100.416C-13.5288 100.254 -13.5782 100.073 -13.5842 99.8887C-13.6018 97.4857 -13.372 95.0873 -12.8982 92.7313C-11.8376 87.5047 -9.71312 83.2619 -6.69784 80.6125C-1.84234 76.2902 1.97332 76.2135 2.13077 76.21C2.28677 76.2103 2.44118 76.2414 2.5852 76.3013C2.72921 76.3613 2.86 76.4491 2.9701 76.5596C3.08019 76.6701 3.16744 76.8012 3.22687 76.9455C3.28629 77.0897 3.31672 77.2443 3.31642 77.4003C3.31611 77.5563 3.28509 77.7107 3.22511 77.8547C3.16514 77.9987 3.07738 78.1295 2.96685 78.2396C2.85633 78.3497 2.72521 78.4369 2.58096 78.4964C2.43672 78.5558 2.28218 78.5862 2.12618 78.5859C2.12618 78.5859 -0.998509 78.7018 -5.12766 82.3806C-8.42961 85.3163 -9.92946 89.8646 -10.5731 93.1551C-10.9007 94.7861 -11.108 96.4389 -11.1935 98.1003C-6.66464 96.1766 -2.49342 93.5015 1.14406 90.188C7.09588 84.5114 5.11022 79.1851 5.08989 79.1305C4.98904 78.8646 4.98792 78.5711 5.08674 78.3043C5.18556 78.0376 5.37763 77.8157 5.62743 77.6796C5.87724 77.5436 6.16786 77.5026 6.44555 77.5642C6.72324 77.6259 6.9692 77.7861 7.13793 78.015L18.355 93.793C18.4448 93.9195 18.5087 94.0625 18.543 94.2138C18.5774 94.3651 18.5814 94.5216 18.5551 94.6745C18.5287 94.8274 18.4723 94.9735 18.3892 95.1045C18.3062 95.2356 18.198 95.3489 18.071 95.4379C17.9865 95.496 17.8955 95.5439 17.7998 95.5805L17.824 95.5714ZM-0.594495 102.334C-0.749005 102.393 -0.914349 102.417 -1.07905 102.405C-1.23376 102.395 -1.38506 102.355 -1.52427 102.287C-1.66347 102.219 -1.78784 102.124 -1.89022 102.007C-1.99261 101.891 -2.07099 101.755 -2.12088 101.609C-2.17077 101.462 -2.19118 101.307 -2.18094 101.152L-1.98386 98.2558C-1.96329 97.9452 -1.82017 97.6555 -1.58599 97.4504C-1.35181 97.2453 -1.04575 97.1416 -0.735143 97.1622C-0.424536 97.1828 -0.134821 97.3259 0.0702642 97.5601C0.27535 97.7943 0.379009 98.1003 0.358436 98.4109L0.167411 101.305C0.15416 101.532 0.0750459 101.75 -0.060264 101.933C-0.195574 102.116 -0.381214 102.255 -0.594495 102.334" fill="#43C400"/>
<path d="M17.507 94.7614C17.372 94.8171 17.2221 94.8254 17.0817 94.785C16.9413 94.7446 16.8187 94.6578 16.7339 94.5389L7.15275 81.0015C7.19108 83.4925 6.37917 87.2943 2.2882 91.1867C-1.96616 95.0746 -6.92199 98.1167 -12.3145 100.151C-12.4102 100.183 -12.5121 100.192 -12.6121 100.178C-12.7121 100.164 -12.8074 100.126 -12.8903 100.068C-12.9735 100.011 -13.0422 99.9352 -13.0908 99.8467C-13.1394 99.7581 -13.1666 99.6594 -13.1701 99.5585C-13.1915 97.1977 -12.9642 94.8413 -12.492 92.5282C-11.4671 87.3909 -9.3823 83.3008 -6.45945 80.6997C-1.75257 76.5156 1.86858 76.4355 2.01996 76.4343C2.10499 76.4339 2.18928 76.4502 2.26801 76.4823C2.34674 76.5145 2.41837 76.5618 2.4788 76.6216C2.53923 76.6815 2.58729 76.7526 2.62023 76.831C2.65317 76.9094 2.67035 76.9935 2.67078 77.0786C2.67122 77.1636 2.65489 77.2479 2.62275 77.3266C2.59061 77.4053 2.54328 77.477 2.48345 77.5374C2.42363 77.5978 2.35249 77.6459 2.27409 77.6788C2.1957 77.7118 2.11158 77.7289 2.02654 77.7294C2.02654 77.7294 -1.30478 77.8463 -5.61285 81.6747C-11.1113 86.568 -11.8086 95.6759 -11.8861 98.5967C-9.6568 97.6897 -3.57896 94.9614 1.37567 90.257C7.57769 84.3629 5.5485 78.8458 5.4566 78.6178C5.41619 78.5422 5.39106 78.4594 5.38265 78.3741C5.37424 78.2889 5.3827 78.2028 5.40757 78.1207C5.43243 78.0387 5.4732 77.9624 5.52756 77.8962C5.58191 77.8299 5.64878 77.775 5.72435 77.7346C5.79992 77.6942 5.88271 77.6691 5.96799 77.6607C6.05327 77.6523 6.13938 77.6607 6.22139 77.6856C6.3034 77.7104 6.3797 77.7512 6.44595 77.8056C6.51221 77.8599 6.5671 77.9268 6.60751 78.0024L17.8223 93.7743C17.8721 93.8432 17.9078 93.9212 17.9274 94.0039C17.9469 94.0866 17.95 94.1724 17.9364 94.2563C17.9229 94.3402 17.8929 94.4206 17.8482 94.4929C17.8035 94.5652 17.745 94.628 17.676 94.6777L17.5184 94.7364L17.507 94.7614ZM-0.875812 101.49C-0.961699 101.522 -1.05331 101.535 -1.14458 101.528C-1.31527 101.517 -1.47437 101.438 -1.58705 101.309C-1.69972 101.18 -1.75679 101.012 -1.74575 100.841L-1.57065 97.9603C-1.55958 97.7887 -1.48079 97.6285 -1.35161 97.515C-1.22243 97.4015 -1.05345 97.3439 -0.881838 97.355C-0.710225 97.3661 -0.55004 97.4449 -0.43652 97.574C-0.323 97.7032 -0.265446 97.8722 -0.276516 98.0438L-0.465277 100.944C-0.473502 101.069 -0.517987 101.189 -0.593309 101.29C-0.668631 101.39 -0.771538 101.466 -0.889475 101.509" fill="#98EA00"/>
<path d="M17.3961 94.7496C17.3477 94.7678 17.2946 94.7694 17.2451 94.7541C17.1957 94.7388 17.1527 94.7075 17.1231 94.665L6.62621 79.8747C6.96045 81.9931 6.944 86.5958 2.03261 91.2495C-4.23843 97.2177 -12.3442 100.06 -12.423 100.089C-12.4571 100.104 -12.4944 100.109 -12.5312 100.105C-12.5679 100.1 -12.6029 100.086 -12.6326 100.064C-12.6605 100.039 -12.6819 100.008 -12.6949 99.9734C-12.7079 99.9386 -12.7121 99.901 -12.7071 99.8641C-12.7114 99.7415 -13.0117 87.458 -6.1303 81.3313C-1.53866 77.2454 1.93337 77.1726 2.07869 77.1736C2.10931 77.1731 2.13976 77.1785 2.16827 77.1897C2.19678 77.2009 2.2228 77.2176 2.24484 77.2389C2.26687 77.2602 2.28449 77.2856 2.29669 77.3137C2.30889 77.3418 2.31542 77.3721 2.31591 77.4027C2.31597 77.4655 2.29136 77.5258 2.24738 77.5706C2.2034 77.6154 2.14358 77.6411 2.08081 77.6422C2.05051 77.6535 -1.37232 77.7286 -5.81915 81.6846C-9.32127 84.8054 -10.8829 89.5769 -11.57 93.0285C-11.9991 95.1576 -12.2273 97.3223 -12.2515 99.4941C-10.7124 98.9203 -3.78513 96.0825 1.71324 90.8372C8.14882 84.718 5.91754 78.8069 5.89721 78.7523C5.87506 78.6991 5.87346 78.6395 5.89272 78.5851C5.91199 78.5308 5.95074 78.4855 6.00147 78.4581C6.05281 78.4301 6.11264 78.4218 6.16966 78.4349C6.22667 78.448 6.27692 78.4815 6.3109 78.5291L17.5257 94.301C17.5444 94.3262 17.5579 94.3549 17.5652 94.3854C17.5726 94.4159 17.5736 94.4476 17.5684 94.4786C17.5632 94.5096 17.5518 94.5391 17.5348 94.5656C17.5179 94.592 17.4958 94.6147 17.4698 94.6324L17.4153 94.6527L17.3961 94.7496ZM-0.978989 101.407C-1.00459 101.423 -1.03356 101.434 -1.06382 101.438C-1.12605 101.434 -1.18423 101.406 -1.22599 101.36C-1.26775 101.313 -1.28978 101.253 -1.28739 101.19L-1.09862 98.2902C-1.08759 98.233 -1.05609 98.1818 -1.01001 98.1462C-0.963937 98.1106 -0.906454 98.093 -0.848337 98.0967C-0.79022 98.1005 -0.735462 98.1253 -0.694322 98.1665C-0.653182 98.2077 -0.628486 98.2625 -0.624865 98.3206L-0.815885 101.215C-0.8187 101.261 -0.834986 101.306 -0.86275 101.343C-0.890514 101.38 -0.928554 101.409 -0.972213 101.425" fill="#FEFE00"/>
</g>
</g>
<defs>
<filter id="filter0_f_104_195" x="207.662" y="418.727" width="235.949" height="233.33" filterUnits="userSpaceOnUse" color-interpolation-filters="sRGB">
<feFlood flood-opacity="0" result="BackgroundImageFix"/>
<feBlend mode="normal" in="SourceGraphic" in2="BackgroundImageFix" result="shape"/>
<feGaussianBlur stdDeviation="40.2498" result="effect1_foregroundBlur_104_195"/>
</filter>
<filter id="filter1_dd_104_195" x="256.638" y="468.758" width="126.603" height="134.319" filterUnits="userSpaceOnUse" color-interpolation-filters="sRGB">
<feFlood flood-opacity="0" result="BackgroundImageFix"/>
<feColorMatrix in="SourceAlpha" type="matrix" values="0 0 0 0 0 0 0 0 0 0 0 0 0 0 0 0 0 0 127 0" result="hardAlpha"/>
<feOffset/>
<feGaussianBlur stdDeviation="12.0587"/>
<feComposite in2="hardAlpha" operator="out"/>
<feColorMatrix type="matrix" values="0 0 0 0 0.262745 0 0 0 0 0.768627 0 0 0 0 0 0 0 0 1 0"/>
<feBlend mode="normal" in2="BackgroundImageFix" result="effect1_dropShadow_104_195"/>
<feColorMatrix in="SourceAlpha" type="matrix" values="0 0 0 0 0 0 0 0 0 0 0 0 0 0 0 0 0 0 127 0" result="hardAlpha"/>
<feOffset dy="4"/>
<feGaussianBlur stdDeviation="2"/>
<feComposite in2="hardAlpha" operator="out"/>
<feColorMatrix type="matrix" values="0 0 0 0 0 0 0 0 0 0 0 0 0 0 0 0 0 0 0.25 0"/>
<feBlend mode="normal" in2="effect1_dropShadow_104_195" result="effect2_dropShadow_104_195"/>
<feBlend mode="normal" in="SourceGraphic" in2="effect2_dropShadow_104_195" result="shape"/>
</filter>
<filter id="filter2_f_104_195" x="-111.891" y="160.55" width="219.96" height="217.9" filterUnits="userSpaceOnUse" color-interpolation-filters="sRGB">
<feFlood flood-opacity="0" result="BackgroundImageFix"/>
<feBlend mode="normal" in="SourceGraphic" in2="BackgroundImageFix" result="shape"/>
<feGaussianBlur stdDeviation="40.2498" result="effect1_foregroundBlur_104_195"/>
</filter>
<filter id="filter3_f_104_195" x="240.173" y="37.4694" width="149.228" height="142.165" filterUnits="userSpaceOnUse" color-interpolation-filters="sRGB">
<feFlood flood-opacity="0" result="BackgroundImageFix"/>
<feBlend mode="normal" in="SourceGraphic" in2="BackgroundImageFix" result="shape"/>
<feGaussianBlur stdDeviation="20.8271" result="effect1_foregroundBlur_104_195"/>
</filter>
<filter id="filter4_dd_104_195" x="276.833" y="72.8362" width="77.8368" height="78.2211" filterUnits="userSpaceOnUse" color-interpolation-filters="sRGB">
<feFlood flood-opacity="0" result="BackgroundImageFix"/>
<feColorMatrix in="SourceAlpha" type="matrix" values="0 0 0 0 0 0 0 0 0 0 0 0 0 0 0 0 0 0 127 0" result="hardAlpha"/>
<feOffset/>
<feGaussianBlur stdDeviation="6.94236"/>
<feComposite in2="hardAlpha" operator="out"/>
<feColorMatrix type="matrix" values="0 0 0 0 1 0 0 0 0 1 0 0 0 0 0.227451 0 0 0 1 0"/>
<feBlend mode="normal" in2="BackgroundImageFix" result="effect1_dropShadow_104_195"/>
<feColorMatrix in="SourceAlpha" type="matrix" values="0 0 0 0 0 0 0 0 0 0 0 0 0 0 0 0 0 0 127 0" result="hardAlpha"/>
<feOffset dy="2.77694"/>
<feGaussianBlur stdDeviation="1.38847"/>
<feComposite in2="hardAlpha" operator="out"/>
<feColorMatrix type="matrix" values="0 0 0 0 0 0 0 0 0 0 0 0 0 0 0 0 0 0 0.25 0"/>
<feBlend mode="normal" in2="effect1_dropShadow_104_195" result="effect2_dropShadow_104_195"/>
<feBlend mode="normal" in="SourceGraphic" in2="effect2_dropShadow_104_195" result="shape"/>
</filter>
<filter id="filter5_f_104_195" x="-17.7427" y="512.932" width="50.6504" height="46.467" filterUnits="userSpaceOnUse" color-interpolation-filters="sRGB">
<feFlood flood-opacity="0" result="BackgroundImageFix"/>
<feBlend mode="normal" in="SourceGraphic" in2="BackgroundImageFix" result="shape"/>
<feGaussianBlur stdDeviation="6.97191" result="effect1_foregroundBlur_104_195"/>
</filter>
<filter id="filter6_f_104_195" x="6.06789" y="499.505" width="53.1826" height="42.8315" filterUnits="userSpaceOnUse" color-interpolation-filters="sRGB">
<feFlood flood-opacity="0" result="BackgroundImageFix"/>
<feBlend mode="normal" in="SourceGraphic" in2="BackgroundImageFix" result="shape"/>
<feGaussianBlur stdDeviation="6.97191" result="effect1_foregroundBlur_104_195"/>
</filter>
<filter id="filter7_f_104_195" x="5.42433" y="503.675" width="59.542" height="73.5359" filterUnits="userSpaceOnUse" color-interpolation-filters="sRGB">
<feFlood flood-opacity="0" result="BackgroundImageFix"/>
<feBlend mode="normal" in="SourceGraphic" in2="BackgroundImageFix" result="shape"/>
<feGaussianBlur stdDeviation="6.97191" result="effect1_foregroundBlur_104_195"/>
</filter>
<filter id="filter8_f_104_195" x="-24.7886" y="491.173" width="59.542" height="73.5359" filterUnits="userSpaceOnUse" color-interpolation-filters="sRGB">
<feFlood flood-opacity="0" result="BackgroundImageFix"/>
<feBlend mode="normal" in="SourceGraphic" in2="BackgroundImageFix" result="shape"/>
<feGaussianBlur stdDeviation="6.97191" result="effect1_foregroundBlur_104_195"/>
</filter>
<filter id="filter9_dd_104_195" x="-14.9697" y="506.268" width="69.2285" height="70.0417" filterUnits="userSpaceOnUse" color-interpolation-filters="sRGB">
<feFlood flood-opacity="0" result="BackgroundImageFix"/>
<feColorMatrix in="SourceAlpha" type="matrix" values="0 0 0 0 0 0 0 0 0 0 0 0 0 0 0 0 0 0 127 0" result="hardAlpha"/>
<feOffset/>
<feGaussianBlur stdDeviation="4.64794"/>
<feComposite in2="hardAlpha" operator="out"/>
<feColorMatrix type="matrix" values="0 0 0 0 0.921569 0 0 0 0 0.176471 0 0 0 0 0.384314 0 0 0 1 0"/>
<feBlend mode="normal" in2="BackgroundImageFix" result="effect1_dropShadow_104_195"/>
<feColorMatrix in="SourceAlpha" type="matrix" values="0 0 0 0 0 0 0 0 0 0 0 0 0 0 0 0 0 0 127 0" result="hardAlpha"/>
<feOffset dy="1.85918"/>
<feGaussianBlur stdDeviation="0.929589"/>
<feComposite in2="hardAlpha" operator="out"/>
<feColorMatrix type="matrix" values="0 0 0 0 0 0 0 0 0 0 0 0 0 0 0 0 0 0 0.25 0"/>
<feBlend mode="normal" in2="effect1_dropShadow_104_195" result="effect2_dropShadow_104_195"/>
<feBlend mode="normal" in="SourceGraphic" in2="effect2_dropShadow_104_195" result="shape"/>
</filter>
<filter id="filter10_f_104_195" x="-33.9568" y="64.136" width="96.601" height="89.6552" filterUnits="userSpaceOnUse" color-interpolation-filters="sRGB">
<feFlood flood-opacity="0" result="BackgroundImageFix"/>
<feBlend mode="normal" in="SourceGraphic" in2="BackgroundImageFix" result="shape"/>
<feGaussianBlur stdDeviation="14.702" result="effect1_foregroundBlur_104_195"/>
</filter>
<filter id="filter11_f_104_195" x="6.65443" y="78.528" width="52.4411" height="48.2072" filterUnits="userSpaceOnUse" color-interpolation-filters="sRGB">
<feFlood flood-opacity="0" result="BackgroundImageFix"/>
<feBlend mode="normal" in="SourceGraphic" in2="BackgroundImageFix" result="shape"/>
<feGaussianBlur stdDeviation="7.35101" result="effect1_foregroundBlur_104_195"/>
</filter>
<filter id="filter12_f_104_195" x="-41.9226" y="45.2493" width="91.1059" height="85.332" filterUnits="userSpaceOnUse" color-interpolation-filters="sRGB">
<feFlood flood-opacity="0" result="BackgroundImageFix"/>
<feBlend mode="normal" in="SourceGraphic" in2="BackgroundImageFix" result="shape"/>
<feGaussianBlur stdDeviation="14.702" result="effect1_foregroundBlur_104_195"/>
</filter>
<filter id="filter13_dd_104_195" x="-19.0113" y="84.4941" width="61.2374" height="48.3903" filterUnits="userSpaceOnUse" color-interpolation-filters="sRGB">
<feFlood flood-opacity="0" result="BackgroundImageFix"/>
<feColorMatrix in="SourceAlpha" type="matrix" values="0 0 0 0 0 0 0 0 0 0 0 0 0 0 0 0 0 0 127 0" result="hardAlpha"/>
<feOffset/>
<feGaussianBlur stdDeviation="4.90067"/>
<feComposite in2="hardAlpha" operator="out"/>
<feColorMatrix type="matrix" values="0 0 0 0 0.921569 0 0 0 0 0.176471 0 0 0 0 0.384314 0 0 0 1 0"/>
<feBlend mode="normal" in2="BackgroundImageFix" result="effect1_dropShadow_104_195"/>
<feColorMatrix in="SourceAlpha" type="matrix" values="0 0 0 0 0 0 0 0 0 0 0 0 0 0 0 0 0 0 127 0" result="hardAlpha"/>
<feOffset/>
<feGaussianBlur stdDeviation="0.490067"/>
<feComposite in2="hardAlpha" operator="out"/>
<feColorMatrix type="matrix" values="0 0 0 0 1 0 0 0 0 0.388235 0 0 0 0 0.462745 0 0 0 1 0"/>
<feBlend mode="normal" in2="effect1_dropShadow_104_195" result="effect2_dropShadow_104_195"/>
<feBlend mode="normal" in="SourceGraphic" in2="effect2_dropShadow_104_195" result="shape"/>
</filter>
<filter id="filter14_d_104_195" x="-23.3863" y="66.4086" width="51.7599" height="45.8002" filterUnits="userSpaceOnUse" color-interpolation-filters="sRGB">
<feFlood flood-opacity="0" result="BackgroundImageFix"/>
<feColorMatrix in="SourceAlpha" type="matrix" values="0 0 0 0 0 0 0 0 0 0 0 0 0 0 0 0 0 0 127 0" result="hardAlpha"/>
<feOffset/>
<feGaussianBlur stdDeviation="4.90067"/>
<feComposite in2="hardAlpha" operator="out"/>
<feColorMatrix type="matrix" values="0 0 0 0 0.262745 0 0 0 0 0.768627 0 0 0 0 0 0 0 0 1 0"/>
<feBlend mode="normal" in2="BackgroundImageFix" result="effect1_dropShadow_104_195"/>
<feBlend mode="normal" in="SourceGraphic" in2="effect1_dropShadow_104_195" result="shape"/>
</filter>
<radialGradient id="paint0_radial_104_195" cx="0" cy="0" r="1" gradientUnits="userSpaceOnUse" gradientTransform="translate(7.58246 536.166) rotate(84.1717) scale(11.777 27.3417)">
<stop stop-color="#FF6376"/>
<stop offset="1" stop-color="#FF6376" stop-opacity="0"/>
</radialGradient>
<radialGradient id="paint1_radial_104_195" cx="0" cy="0" r="1" gradientUnits="userSpaceOnUse" gradientTransform="translate(32.6589 520.921) rotate(84.1717) scale(11.777 27.3417)">
<stop stop-color="#0DB4FF"/>
<stop offset="1" stop-color="#FF6376" stop-opacity="0"/>
</radialGradient>
<radialGradient id="paint2_radial_104_195" cx="0" cy="0" r="1" gradientUnits="userSpaceOnUse" gradientTransform="translate(32.8748 102.632) rotate(84.1717) scale(11.9188 27.671)">
<stop stop-color="#FF6376"/>
<stop offset="1" stop-color="#FF6376" stop-opacity="0"/>
</radialGradient>
<clipPath id="clip0_104_195">
<rect width="320" height="568" fill="white"/>
</clipPath>
</defs>
</svg>
